<svg width="34" height="34" viewBox="0 0 34 34" fill="none" xmlns="http://www.w3.org/2000/svg">
<g clip-path="url(#clip0_462_2007)">
<path d="M25.0679 20.2796C24.1967 19.4083 23.2121 18.7071 22.1708 18.1758C22.0059 18.0944 21.8673 17.9682 21.7708 17.8116C21.6743 17.655 21.624 17.4743 21.6254 17.2904L21.9088 14.7829C18.9479 13.7346 15.2646 13.6638 12.1904 14.7404L12.3959 17.2975C12.3888 17.6871 12.1692 18.02 11.8434 18.19C10.795 18.7142 9.81752 19.4225 8.94628 20.2937C8.56378 20.6762 7.92628 20.6762 7.54378 20.2937L5.09295 17.8429C4.71045 17.4604 4.42003 16.83 4.95128 16.2988C11.5317 9.71834 22.4754 9.72543 29.0488 16.2988C29.5517 16.8017 29.3037 17.4463 28.9142 17.8358L26.4704 20.2796C26.0879 20.6621 25.4504 20.6621 25.0679 20.2796Z" fill="white"/>
</g>
<defs>
<clipPath id="clip0_462_2007">
<rect width="24" height="24" fill="white" transform="matrix(0.708333 0.708333 0.708333 -0.708333 0 17)"/>
</clipPath>
</defs>
</svg>
