<svg width="425" height="210" viewBox="0 0 425 210" fill="none" xmlns="http://www.w3.org/2000/svg">
<g clip-path="url(#clip0_446_10671)">
<path d="M134.683 117.25H114.25V141.42H134.683V117.25Z" fill="#F5F5F5"/>
<path d="M114.961 115.67H22.6309V142.935H114.961V115.67Z" fill="#E0E0E0"/>
<path d="M135.3 117.963H112.48V115.67H135.3C135.935 115.67 136.452 116.185 136.452 116.816C136.452 117.454 135.935 117.963 135.3 117.963Z" fill="#E0E0E0"/>
<path d="M135.3 142.935H112.48V140.642H135.3C135.935 140.642 136.452 141.157 136.452 141.789C136.452 142.426 135.935 142.935 135.3 142.935Z" fill="#E0E0E0"/>
<path d="M107.702 115.67H96.791V142.935H107.702V115.67Z" fill="#EBEBEB"/>
<path d="M42.3179 115.974H31.4072V143.239H42.3179V115.974Z" fill="#EBEBEB"/>
<path d="M134.683 121.244C134.683 121.309 130.263 121.367 124.808 121.367C119.353 121.367 114.932 121.315 114.932 121.244C114.932 121.18 119.353 121.122 124.808 121.122C130.263 121.122 134.683 121.18 134.683 121.244Z" fill="#E0E0E0"/>
<path d="M134.683 124.871C134.683 124.935 130.263 124.994 124.808 124.994C119.353 124.994 114.932 124.941 114.932 124.871C114.932 124.807 119.353 124.748 124.808 124.748C130.263 124.748 134.683 124.801 134.683 124.871Z" fill="#E0E0E0"/>
<path d="M134.683 129.335C134.683 129.399 130.263 129.458 124.808 129.458C119.353 129.458 114.932 129.405 114.932 129.335C114.932 129.27 119.353 129.212 124.808 129.212C130.263 129.212 134.683 129.265 134.683 129.335Z" fill="#E0E0E0"/>
<path d="M134.683 133.793C134.683 133.857 130.263 133.915 124.808 133.915C119.353 133.915 114.932 133.863 114.932 133.793C114.932 133.728 119.353 133.67 124.808 133.67C130.263 133.676 134.683 133.728 134.683 133.793Z" fill="#E0E0E0"/>
<path d="M134.683 138.255C134.683 138.319 130.263 138.378 124.808 138.378C119.353 138.378 114.932 138.325 114.932 138.255C114.932 138.191 119.353 138.132 124.808 138.132C130.263 138.138 134.683 138.191 134.683 138.255Z" fill="#E0E0E0"/>
<path d="M90.9246 126.878H49.3887V131.786H90.9246V126.878Z" fill="#EBEBEB"/>
<path d="M134.477 143.473H113.733V158.202H134.477V143.473Z" fill="#FAFAFA"/>
<path d="M113.968 142.936H25.6875V158.729H113.968V142.936Z" fill="#F5F5F5"/>
<path d="M113.321 144.006H135.617C135.911 144.006 136.152 143.766 136.152 143.474C136.152 143.181 135.911 142.942 135.617 142.942H113.321V144.006Z" fill="#F5F5F5"/>
<path d="M113.321 158.735H135.905C136.04 158.735 136.152 158.624 136.152 158.49V157.91C136.152 157.776 136.04 157.665 135.905 157.665H113.321V158.735Z" fill="#F5F5F5"/>
<path d="M134.477 146.27C134.477 146.334 129.886 146.393 124.22 146.393C118.553 146.393 113.962 146.34 113.962 146.27C113.962 146.205 118.553 146.147 124.22 146.147C129.88 146.147 134.477 146.205 134.477 146.27Z" fill="#E0E0E0"/>
<path d="M134.477 149.054C134.477 149.118 129.886 149.177 124.22 149.177C118.553 149.177 113.962 149.124 113.962 149.054C113.962 148.989 118.553 148.931 124.22 148.931C129.88 148.937 134.477 148.989 134.477 149.054Z" fill="#E0E0E0"/>
<path d="M134.477 151.845C134.477 151.909 129.886 151.967 124.22 151.967C118.553 151.967 113.962 151.915 113.962 151.845C113.962 151.78 118.553 151.722 124.22 151.722C129.88 151.722 134.477 151.774 134.477 151.845Z" fill="#E0E0E0"/>
<path d="M134.477 154.629C134.477 154.694 129.886 154.752 124.22 154.752C118.553 154.752 113.962 154.699 113.962 154.629C113.962 154.565 118.553 154.506 124.22 154.506C129.88 154.506 134.477 154.559 134.477 154.629Z" fill="#E0E0E0"/>
<path d="M137.622 160.138H116.449V200.062H137.622V160.138Z" fill="#EBEBEB"/>
<path d="M116.449 158.736H17.0645V202.023H116.449V158.736Z" fill="#E0E0E0"/>
<path d="M139.28 202.015H113.733V199.208H139.28C140.062 199.208 140.691 199.833 140.691 200.611C140.691 201.389 140.056 202.015 139.28 202.015Z" fill="#E0E0E0"/>
<path d="M140.044 161.536H113.733V158.729H140.044C140.403 158.729 140.691 159.015 140.691 159.372V160.893C140.691 161.25 140.397 161.536 140.044 161.536Z" fill="#E0E0E0"/>
<path d="M137.622 165.484C137.622 165.549 132.884 165.607 127.036 165.607C121.187 165.607 116.449 165.555 116.449 165.484C116.449 165.42 121.187 165.362 127.036 165.362C132.884 165.367 137.622 165.42 137.622 165.484Z" fill="#E0E0E0"/>
<path d="M137.622 170.609C137.622 170.674 132.884 170.732 127.036 170.732C121.187 170.732 116.449 170.68 116.449 170.609C116.449 170.545 121.187 170.487 127.036 170.487C132.884 170.487 137.622 170.539 137.622 170.609Z" fill="#E0E0E0"/>
<path d="M137.622 175.728C137.622 175.792 132.884 175.85 127.036 175.85C121.187 175.85 116.449 175.798 116.449 175.728C116.449 175.663 121.187 175.605 127.036 175.605C132.884 175.605 137.622 175.663 137.622 175.728Z" fill="#E0E0E0"/>
<path d="M137.622 180.846C137.622 180.91 132.884 180.969 127.036 180.969C121.187 180.969 116.449 180.916 116.449 180.846C116.449 180.781 121.187 180.723 127.036 180.723C132.884 180.729 137.622 180.781 137.622 180.846Z" fill="#E0E0E0"/>
<path d="M137.622 185.971C137.622 186.035 132.884 186.094 127.036 186.094C121.187 186.094 116.449 186.041 116.449 185.971C116.449 185.906 121.187 185.848 127.036 185.848C132.884 185.848 137.622 185.901 137.622 185.971Z" fill="#E0E0E0"/>
<path d="M137.622 191.089C137.622 191.153 132.884 191.212 127.036 191.212C121.187 191.212 116.449 191.159 116.449 191.089C116.449 191.025 121.187 190.966 127.036 190.966C132.884 190.966 137.622 191.025 137.622 191.089Z" fill="#E0E0E0"/>
<path d="M137.622 196.207C137.622 196.271 132.884 196.33 127.036 196.33C121.187 196.33 116.449 196.277 116.449 196.207C116.449 196.143 121.187 196.084 127.036 196.084C132.884 196.09 137.622 196.143 137.622 196.207Z" fill="#E0E0E0"/>
<path d="M51.0704 182.742V185.152C51.0704 188.053 49.6125 189.709 46.8025 189.709C43.9926 189.709 42.5347 188.053 42.5347 185.152V175.722C42.5347 172.821 43.9926 171.166 46.8025 171.166C49.6125 171.166 51.0704 172.821 51.0704 175.722V177.483H48.3663V175.541C48.3663 174.248 47.796 173.757 46.8848 173.757C45.9737 173.757 45.4034 174.248 45.4034 175.541V185.333C45.4034 186.626 45.9737 187.094 46.8848 187.094C47.796 187.094 48.3663 186.626 48.3663 185.333V182.742H51.0704Z" fill="#EBEBEB"/>
<path d="M52.5806 175.728C52.5806 172.827 54.1149 171.172 56.9249 171.172C59.7348 171.172 61.2692 172.827 61.2692 175.728V185.158C61.2692 188.059 59.7348 189.715 56.9249 189.715C54.1149 189.715 52.5806 188.059 52.5806 185.158V175.728ZM55.4435 185.333C55.4435 186.626 56.0137 187.118 56.9249 187.118C57.836 187.118 58.4063 186.626 58.4063 185.333V175.547C58.4063 174.254 57.836 173.763 56.9249 173.763C56.0137 173.763 55.4435 174.254 55.4435 175.547V185.333Z" fill="#EBEBEB"/>
<path d="M63.1147 171.376H65.9776V186.913H70.6864V189.504H63.1147V171.376Z" fill="#EBEBEB"/>
<path d="M71.7031 175.728C71.7031 172.827 73.2374 171.172 76.0474 171.172C78.8574 171.172 80.3917 172.827 80.3917 175.728V185.158C80.3917 188.059 78.8574 189.715 76.0474 189.715C73.2374 189.715 71.7031 188.059 71.7031 185.158V175.728ZM74.566 185.333C74.566 186.626 75.1362 187.118 76.0474 187.118C76.9586 187.118 77.5288 186.626 77.5288 185.333V175.547C77.5288 174.254 76.9586 173.763 76.0474 173.763C75.1362 173.763 74.566 174.254 74.566 175.547V185.333Z" fill="#EBEBEB"/>
<path d="M84.9762 171.376V185.363C84.9762 186.655 85.5464 187.123 86.4576 187.123C87.3688 187.123 87.939 186.655 87.939 185.363V171.376H90.6432V185.181C90.6432 188.083 89.1853 189.738 86.3753 189.738C83.5653 189.738 82.1074 188.083 82.1074 185.181V171.376H84.9762Z" fill="#EBEBEB"/>
<path d="M98.5845 189.504C98.4258 189.036 98.3259 188.755 98.3259 187.275V184.427C98.3259 182.742 97.7556 182.122 96.4506 182.122H95.463V189.504H92.6001V171.376H96.9209C99.8896 171.376 101.165 172.751 101.165 175.547V176.968C101.165 178.834 100.566 180.051 99.29 180.648C100.724 181.244 101.189 182.613 101.189 184.509V187.305C101.189 188.188 101.212 188.831 101.5 189.504H98.5845ZM95.463 173.968V179.536H96.5799C97.6498 179.536 98.2965 179.068 98.2965 177.618V175.834C98.2965 174.541 97.8556 173.968 96.8386 173.968H95.463Z" fill="#EBEBEB"/>
<path d="M50.4531 149.159H48.3662L48.4779 148.621H53.269L53.1514 149.159H51.0704L49.9946 154.506H49.3773L50.4531 149.159Z" fill="#E0E0E0"/>
<path d="M57.2894 150.083L54.0444 155.079C53.4977 155.921 53.0803 156.178 52.4395 156.178C52.028 156.178 51.6047 156.038 51.3813 155.781L51.7047 155.342C51.8987 155.541 52.1514 155.664 52.4924 155.664C52.8745 155.664 53.1684 155.488 53.5153 154.95L53.8269 154.482L52.7217 150.083H53.3272L54.2501 153.85L56.678 150.083H57.2894Z" fill="#E0E0E0"/>
<path d="M62.2278 151.914C62.2278 153.435 61.1638 154.546 59.7118 154.546C58.8653 154.546 58.2774 154.201 58.0188 153.581L57.5132 156.137H56.9136L58.1246 150.083H58.7007L58.5596 150.791C58.9828 150.323 59.5766 150.054 60.2938 150.054C61.4283 150.048 62.2278 150.755 62.2278 151.914ZM61.6223 151.949C61.6223 151.083 61.0874 150.568 60.1586 150.568C59.0534 150.568 58.2421 151.434 58.2421 152.645C58.2421 153.511 58.7771 154.014 59.7059 154.014C60.8111 154.02 61.6223 153.154 61.6223 151.949Z" fill="#E0E0E0"/>
<path d="M62.9268 152.674C62.9268 151.171 64.0025 150.054 65.4957 150.054C66.7302 150.054 67.518 150.779 67.518 151.92C67.518 153.435 66.4422 154.552 64.949 154.552C63.7145 154.546 62.9268 153.809 62.9268 152.674ZM66.9183 151.949C66.9183 151.083 66.3834 150.568 65.4546 150.568C64.3494 150.568 63.5264 151.44 63.5264 152.645C63.5264 153.511 64.0613 154.014 64.9901 154.014C66.0953 154.02 66.9183 153.154 66.9183 151.949Z" fill="#E0E0E0"/>
<path d="M73.267 150.083L72.491 153.967C72.1794 155.529 71.3506 156.178 69.9044 156.178C69.0697 156.178 68.3819 155.944 67.9292 155.511L68.2819 155.055C68.6346 155.418 69.2343 155.646 69.9456 155.646C71.0684 155.646 71.6621 155.131 71.8737 154.066L71.9737 153.575C71.5504 154.049 70.9508 154.335 70.1983 154.335C69.0226 154.335 68.2349 153.657 68.2349 152.551C68.2349 151.13 69.293 150.048 70.7686 150.048C71.5857 150.048 72.25 150.381 72.5028 151.054L72.6909 150.077H73.267V150.083ZM72.2559 151.855C72.2559 151.048 71.7091 150.568 70.7862 150.568C69.6634 150.568 68.8521 151.393 68.8521 152.516C68.8521 153.323 69.393 153.803 70.3218 153.803C71.4387 153.809 72.2559 152.984 72.2559 151.855Z" fill="#E0E0E0"/>
<path d="M77.1875 150.048L77.0758 150.627C77.017 150.627 76.9759 150.615 76.9053 150.615C75.9589 150.615 75.324 151.153 75.1065 152.253L74.6597 154.499H74.0601L74.9419 150.077H75.518L75.3651 150.884C75.759 150.311 76.341 150.048 77.1875 150.048Z" fill="#E0E0E0"/>
<path d="M82.2839 150.083L81.3962 154.505H80.8201L80.9612 153.809C80.538 154.271 79.9501 154.546 79.227 154.546C78.0866 154.546 77.293 153.838 77.293 152.674C77.293 151.159 78.357 150.054 79.8031 150.054C80.6497 150.054 81.2375 150.399 81.4903 151.013L81.6784 150.089H82.2839V150.083ZM81.2845 151.949C81.2845 151.083 80.7496 150.568 79.8208 150.568C78.7156 150.568 77.8926 151.44 77.8926 152.645C77.8926 153.511 78.4275 154.014 79.3564 154.014C80.4674 154.02 81.2845 153.154 81.2845 151.949Z" fill="#E0E0E0"/>
<path d="M88.0506 151.914C88.0506 153.435 86.9866 154.546 85.5345 154.546C84.688 154.546 84.1002 154.201 83.8415 153.581L83.336 156.137H82.7363L83.9473 150.083H84.5234L84.3823 150.791C84.8056 150.323 85.3993 150.054 86.1165 150.054C87.2452 150.048 88.0506 150.755 88.0506 151.914ZM87.4451 151.949C87.4451 151.083 86.9102 150.568 85.9813 150.568C84.8761 150.568 84.0649 151.434 84.0649 152.645C84.0649 153.511 84.5999 154.014 85.5287 154.014C86.6339 154.02 87.4451 153.154 87.4451 151.949Z" fill="#E0E0E0"/>
<path d="M93.4297 151.487C93.4297 151.645 93.4121 151.814 93.3768 151.99L92.8713 154.505H92.2717L92.7772 151.984C92.8007 151.844 92.8184 151.709 92.8184 151.58C92.8184 150.949 92.4362 150.586 91.672 150.586C90.7256 150.586 90.073 151.101 89.8614 152.13L89.3911 154.499H88.7915L90.0436 148.258H90.6433L90.1436 150.738C90.5669 150.258 91.1606 150.042 91.8425 150.042C92.8478 150.048 93.4297 150.586 93.4297 151.487Z" fill="#E0E0E0"/>
<path d="M99.0491 150.083L95.8041 155.079C95.2574 155.921 94.84 156.178 94.1993 156.178C93.7878 156.178 93.3645 156.038 93.1411 155.781L93.4644 155.342C93.6584 155.541 93.9112 155.664 94.2522 155.664C94.6343 155.664 94.9282 155.488 95.2751 154.95L95.5866 154.482L94.4814 150.083H95.0869L96.0099 153.85L98.4378 150.083H99.0491Z" fill="#E0E0E0"/>
<path d="M425.159 202.015C425.159 202.097 332.97 202.167 219.272 202.167C105.533 202.167 13.3677 202.097 13.3677 202.015C13.3677 201.933 105.539 201.863 219.272 201.863C332.964 201.863 425.159 201.933 425.159 202.015Z" fill="#263238"/>
<path d="M386.468 172.16C386.468 172.16 370.884 154.313 365.006 136.466C359.128 118.619 361.92 120.666 361.92 120.666C361.92 120.666 369.856 138.004 375.887 146.375C381.912 154.752 392.646 167.036 392.646 167.036L386.468 172.16Z" fill="#455A64"/>
<path d="M389.572 123.45C389.066 122.578 387.732 123.029 387.879 124.023C388.831 130.294 390.883 145 390.801 154.546C390.695 166.942 390.806 171.732 390.806 171.732H397.291C397.291 171.732 396.138 146.111 394.675 138.296C393.652 132.821 391.471 126.737 389.572 123.45Z" fill="#455A64"/>
<path d="M393.11 169.65C393.11 169.65 397.19 161.11 398.448 150.381C398.983 145.819 398.031 139.653 396.614 131.423C395.926 127.439 395.773 124.403 395.797 122.303C395.815 120.712 397.919 120.198 398.701 121.584C399.483 122.976 401.752 127.72 402.322 130.698C403.892 138.823 405.673 142.882 404.309 150.592C402.951 158.302 397.925 170.171 397.925 170.171L393.11 169.65Z" fill="#455A64"/>
<path d="M398.947 170.171C398.947 170.171 416.053 133.581 417.241 128.159C418.428 122.731 422.46 110.224 422.931 110.932C423.407 111.64 424.118 118.25 421.032 125.802C417.952 133.353 404.784 171.288 404.784 171.288H398.941" fill="#455A64"/>
<path d="M391.235 168.533C391.229 168.545 391.064 168.428 390.753 168.206C390.447 167.978 389.989 167.656 389.43 167.2C388.29 166.311 386.691 164.954 384.833 163.164C381.101 159.595 376.451 154.091 372.424 147.311C368.386 140.532 365.67 133.904 363.954 129.049C363.095 126.621 362.466 124.632 362.061 123.246C361.849 122.556 361.708 122.018 361.608 121.649C361.508 121.281 361.461 121.088 361.473 121.088C361.485 121.082 361.555 121.269 361.679 121.632C361.808 122.023 361.978 122.55 362.196 123.205C362.643 124.574 363.307 126.545 364.2 128.961C365.976 133.781 368.721 140.374 372.742 147.124C376.756 153.874 381.347 159.379 385.021 162.976C386.85 164.79 388.419 166.164 389.53 167.089C390.077 167.562 390.523 167.902 390.811 168.147C391.094 168.393 391.241 168.522 391.235 168.533Z" fill="#263238"/>
<path d="M393.105 150.978C393.082 150.978 393.029 150.598 392.952 149.902C392.87 149.141 392.764 148.158 392.635 146.971C392.365 144.496 391.941 141.08 391.336 137.331C390.73 133.581 390.054 130.206 389.531 127.773C389.278 126.603 389.067 125.632 388.908 124.889C388.761 124.21 388.69 123.83 388.714 123.824C388.737 123.818 388.855 124.187 389.043 124.859C389.237 125.532 389.49 126.509 389.784 127.72C390.372 130.142 391.089 133.517 391.694 137.278C392.3 141.039 392.682 144.461 392.888 146.947C392.994 148.188 393.058 149.2 393.088 149.896C393.129 150.592 393.135 150.978 393.105 150.978Z" fill="#263238"/>
<path d="M397.113 121.292C397.125 121.286 397.195 121.45 397.313 121.754C397.442 122.099 397.613 122.549 397.824 123.111C398.054 123.702 398.312 124.427 398.559 125.287C398.812 126.147 399.141 127.112 399.388 128.218C399.523 128.767 399.664 129.341 399.811 129.937C399.952 130.534 400.058 131.172 400.188 131.821C400.47 133.12 400.64 134.529 400.846 136.009C401.181 138.975 401.363 142.257 401.258 145.708C401.116 149.153 400.699 152.417 400.152 155.354C399.841 156.816 399.564 158.208 399.194 159.484C399.018 160.121 398.871 160.747 398.683 161.338C398.495 161.923 398.312 162.484 398.136 163.023C397.807 164.105 397.413 165.047 397.096 165.883C396.784 166.725 396.472 167.433 396.208 168.001C395.955 168.545 395.755 168.983 395.596 169.317C395.455 169.615 395.373 169.773 395.361 169.767C395.35 169.761 395.408 169.598 395.532 169.287C395.673 168.948 395.849 168.498 396.079 167.942C396.325 167.363 396.619 166.649 396.907 165.807C397.201 164.965 397.583 164.017 397.895 162.935C398.06 162.397 398.236 161.835 398.418 161.25C398.595 160.665 398.736 160.039 398.906 159.402C399.265 158.126 399.523 156.74 399.829 155.284C400.352 152.359 400.764 149.112 400.899 145.69C401.005 142.262 400.834 138.998 400.523 136.044C400.323 134.57 400.164 133.172 399.9 131.874C399.776 131.224 399.682 130.592 399.547 129.996C399.406 129.399 399.276 128.826 399.147 128.276C398.918 127.176 398.606 126.205 398.371 125.345C398.142 124.48 397.901 123.748 397.701 123.152C397.513 122.579 397.366 122.122 397.254 121.771C397.148 121.467 397.101 121.298 397.113 121.292Z" fill="#263238"/>
<path d="M422.737 111.664C422.743 111.664 422.737 111.722 422.725 111.827C422.707 111.956 422.678 112.114 422.649 112.301C422.572 112.716 422.478 113.337 422.314 114.12C421.984 115.694 421.432 117.958 420.58 120.707C419.727 123.456 418.557 126.679 417.17 130.218C415.789 133.763 414.184 137.618 412.667 141.725C411.127 145.825 409.94 149.826 408.823 153.459C407.718 157.091 406.666 160.355 405.655 163.052C404.649 165.749 403.685 167.872 402.951 169.311C402.598 170.037 402.286 170.575 402.081 170.949C401.987 171.119 401.904 171.253 401.84 171.37C401.787 171.464 401.751 171.511 401.746 171.505C401.74 171.499 401.763 171.452 401.804 171.353C401.863 171.236 401.928 171.089 402.01 170.92C402.192 170.54 402.486 169.99 402.815 169.253C403.503 167.802 404.432 165.673 405.402 162.97C406.383 160.274 407.406 157.01 408.494 153.371C409.593 149.739 410.775 145.72 412.321 141.608C413.843 137.489 415.46 133.635 416.853 130.101C418.252 126.574 419.445 123.369 420.327 120.637C421.214 117.905 421.796 115.659 422.173 114.097C422.361 113.319 422.478 112.705 422.578 112.295C422.625 112.108 422.66 111.956 422.69 111.827C422.713 111.716 422.731 111.664 422.737 111.664Z" fill="#263238"/>
<path d="M369.985 103.579C368.909 102.514 367.116 103.626 367.557 105.077C368.01 106.545 368.698 108.44 369.709 110.575C372.06 115.547 378.967 133.394 382.206 143.198C385.439 152.996 389.995 171.282 389.995 171.282L396.902 170.165C396.902 170.165 390.582 140.121 384.41 129.294C379.449 120.601 374.488 108.036 369.985 103.579Z" fill="#455A64"/>
<path d="M384.092 149.328C384.116 149.323 384.239 149.615 384.451 150.153C384.657 150.691 384.933 151.481 385.245 152.458C385.879 154.418 386.661 157.155 387.443 160.197C388.225 163.239 388.878 166.006 389.33 168.018C389.536 168.966 389.712 169.767 389.848 170.399C389.965 170.96 390.012 171.276 389.989 171.282C389.965 171.288 389.865 170.984 389.706 170.428C389.536 169.802 389.324 169.012 389.072 168.076C388.543 166.011 387.849 163.291 387.079 160.285C386.297 157.249 385.556 154.505 384.986 152.528C384.715 151.598 384.486 150.814 384.304 150.188C384.151 149.644 384.069 149.334 384.092 149.328Z" fill="#263238"/>
<path d="M393.462 170.727C393.456 170.727 393.445 170.662 393.421 170.545C393.398 170.405 393.374 170.224 393.345 170.001C393.274 169.528 393.21 168.82 393.063 167.919C392.81 166.111 392.357 163.514 391.617 160.338C390.882 157.162 389.806 153.43 388.384 149.358C386.967 145.287 385.192 140.888 383.175 136.337C379.114 127.241 375.052 119.174 372.389 113.208C371.043 110.23 369.996 107.803 369.309 106.112C368.956 105.27 368.709 104.603 368.533 104.159C368.456 103.948 368.392 103.784 368.339 103.644C368.298 103.527 368.28 103.468 368.286 103.462C368.292 103.462 368.321 103.515 368.374 103.626C368.433 103.761 368.509 103.925 368.597 104.123C368.803 104.591 369.079 105.235 369.438 106.048C370.167 107.721 371.243 110.131 372.618 113.091C375.346 119.022 379.437 127.071 383.505 136.179C385.521 140.736 387.29 145.152 388.695 149.241C390.1 153.33 391.152 157.08 391.864 160.274C392.575 163.462 392.992 166.076 393.198 167.896C393.321 168.802 393.362 169.51 393.415 169.99C393.433 170.212 393.445 170.393 393.457 170.534C393.468 170.662 393.468 170.727 393.462 170.727Z" fill="#263238"/>
<path d="M396.902 170.171C396.879 170.177 396.797 169.761 396.667 169.018C396.532 168.211 396.35 167.146 396.132 165.86C395.656 163.198 394.927 159.53 393.887 155.541C392.852 151.546 391.688 147.989 390.789 145.439C390.348 144.21 389.983 143.192 389.707 142.42C389.448 141.707 389.319 141.309 389.343 141.303C389.366 141.291 389.542 141.672 389.842 142.373C390.142 143.07 390.554 144.087 391.036 145.357C391.994 147.89 393.205 151.446 394.245 155.453C395.292 159.46 395.98 163.145 396.397 165.824C396.591 167.164 396.744 168.252 396.82 169.007C396.891 169.75 396.926 170.165 396.902 170.171Z" fill="#263238"/>
<path d="M411.08 169.182H384.122V201.863H411.08V169.182Z" fill="#FF6652"/>
<g opacity="0.3">
<path opacity="0.3" d="M411.08 169.182H384.122V201.863H411.08V169.182Z" fill="black"/>
</g>
<path d="M402.474 169.182H378.562V201.863H402.474V169.182Z" fill="#FF6652"/>
<path d="M52.0404 157.822C47.4495 154.898 41.0833 154.839 36.6158 157.951C32.3717 160.905 30.2202 166.275 30.4083 171.423C30.5964 176.57 33.1006 182.859 37.7915 185.567L51.5466 185.514C55.9377 182.297 58.9121 177.12 59.1179 171.698C59.3177 166.269 56.6314 160.747 52.0404 157.822Z" fill="#455A64"/>
<path d="M45.263 186.059C45.2336 186.059 45.2042 185.637 45.1748 184.883C45.1513 184.04 45.1219 182.964 45.0807 181.671C45.0102 178.963 44.9044 175.219 44.7221 171.084C44.5399 166.948 44.3165 163.21 44.146 160.508C44.0696 159.221 44.0049 158.144 43.952 157.302C43.9109 156.542 43.905 156.126 43.9344 156.12C43.9638 156.12 44.0284 156.536 44.1225 157.284C44.2166 158.039 44.3283 159.133 44.4517 160.484C44.6986 163.187 44.9749 166.93 45.1571 171.066C45.3394 175.202 45.3982 178.951 45.3864 181.665C45.3805 183.023 45.3629 184.122 45.3394 184.877C45.3217 185.637 45.2924 186.059 45.263 186.059Z" fill="#263238"/>
<path d="M31.7902 170.253C31.7785 170.375 31.0319 170.411 30.1207 170.334C29.2095 170.258 28.4747 170.1 28.4865 169.983C28.4982 169.861 29.2448 169.826 30.156 169.902C31.0672 169.972 31.802 170.13 31.7902 170.253Z" fill="#263238"/>
<path d="M32.0482 165.632C32.0012 165.743 31.3545 165.561 30.6079 165.234C29.8614 164.906 29.297 164.549 29.344 164.438C29.3911 164.327 30.0377 164.503 30.7843 164.836C31.5309 165.164 32.0952 165.521 32.0482 165.632Z" fill="#263238"/>
<path d="M34.4353 162.204C34.3706 162.303 33.6475 161.964 32.8951 161.344C32.1426 160.724 31.6664 160.08 31.7546 159.998C31.8428 159.917 32.4424 160.408 33.1714 161.005C33.9003 161.607 34.4999 162.098 34.4353 162.204Z" fill="#263238"/>
<path d="M36.8388 158.969C36.7271 159.016 36.3803 158.477 36.0629 157.764C35.7454 157.05 35.5749 156.43 35.6866 156.383C35.7983 156.336 36.1452 156.875 36.4626 157.588C36.7801 158.302 36.9447 158.922 36.8388 158.969Z" fill="#263238"/>
<path d="M40.6071 156.676C40.5012 156.728 40.125 156.149 39.8781 155.354C39.6253 154.558 39.6077 153.874 39.7253 153.85C39.8487 153.827 40.0545 154.453 40.2955 155.219C40.5306 155.991 40.7187 156.623 40.6071 156.676Z" fill="#263238"/>
<path d="M46.8911 154.084C47.0028 154.125 46.9381 154.617 46.7324 155.178C46.5325 155.746 46.2738 156.167 46.1621 156.132C46.0504 156.091 46.1151 155.599 46.3209 155.038C46.5207 154.47 46.7794 154.043 46.8911 154.084Z" fill="#263238"/>
<path d="M51.5585 156.078C51.6408 156.166 51.341 156.576 50.8883 156.991C50.4357 157.406 50.0065 157.669 49.9242 157.582C49.8419 157.494 50.1417 157.085 50.5944 156.669C51.0412 156.254 51.4762 155.991 51.5585 156.078Z" fill="#263238"/>
<path d="M55.6619 158.718C55.7324 158.817 55.3679 159.18 54.8447 159.531C54.3274 159.882 53.8512 160.081 53.7807 159.981C53.7102 159.882 54.0746 159.519 54.5978 159.168C55.121 158.817 55.5972 158.618 55.6619 158.718Z" fill="#263238"/>
<path d="M58.5771 162.648C58.6241 162.759 58.048 163.11 57.2955 163.432C56.5372 163.753 55.8847 163.923 55.8376 163.812C55.7906 163.701 56.3667 163.35 57.1251 163.028C57.8775 162.712 58.5301 162.537 58.5771 162.648Z" fill="#263238"/>
<path d="M59.7293 166.942C59.7469 167.059 59.1591 167.234 58.4243 167.322C57.6894 167.416 57.0781 167.386 57.0663 167.269C57.0487 167.152 57.6365 166.977 58.3714 166.889C59.1062 166.796 59.7117 166.819 59.7293 166.942Z" fill="#263238"/>
<path d="M60.3229 172.224C60.2759 172.335 59.6528 172.171 58.9297 171.861C58.2066 171.551 57.6658 171.206 57.7128 171.095C57.7598 170.984 58.383 171.147 59.106 171.457C59.8291 171.767 60.3758 172.113 60.3229 172.224Z" fill="#263238"/>
<path d="M59.7999 176.757C59.7588 176.868 58.971 176.681 58.148 176.143C57.3192 175.611 56.8312 174.967 56.9194 174.885C57.0076 174.798 57.6072 175.271 58.3891 175.774C59.165 176.283 59.8411 176.64 59.7999 176.757Z" fill="#263238"/>
<path d="M57.4247 180.882C57.3541 180.975 56.7251 180.607 56.1255 179.963C55.52 179.32 55.2025 178.67 55.2966 178.606C55.3965 178.536 55.8668 179.051 56.4429 179.671C57.0249 180.285 57.507 180.788 57.4247 180.882Z" fill="#263238"/>
<path d="M34.9114 181.367C34.9702 181.473 34.3059 181.923 33.4417 182.374C32.5717 182.824 31.8251 183.099 31.7663 182.994C31.7075 182.888 32.3718 182.438 33.236 181.987C34.106 181.537 34.8526 181.262 34.9114 181.367Z" fill="#263238"/>
<path d="M32.8538 177.635C32.9067 177.746 32.3776 178.091 31.6722 178.407C30.9726 178.723 30.3612 178.892 30.3083 178.781C30.2554 178.67 30.7845 178.325 31.4899 178.009C32.1954 177.693 32.8009 177.524 32.8538 177.635Z" fill="#263238"/>
<path d="M31.3431 174.33C31.3607 174.447 30.7082 174.64 29.8911 174.757C29.0739 174.874 28.392 174.868 28.3744 174.751C28.3567 174.634 29.0093 174.441 29.8264 174.324C30.6435 174.207 31.3254 174.207 31.3431 174.33Z" fill="#263238"/>
<path d="M36.2988 172.505C36.3341 172.616 35.6992 172.914 34.8527 173.008C34.0062 173.107 33.3242 172.955 33.3301 172.838C33.336 172.715 34.0003 172.663 34.7998 172.569C35.6051 172.487 36.2635 172.388 36.2988 172.505Z" fill="#263238"/>
<path d="M40.4191 168.428C40.4543 168.539 39.9488 168.796 39.2668 168.86C38.5849 168.931 38.0441 168.778 38.0559 168.662C38.0676 168.539 38.5908 168.492 39.2257 168.428C39.8606 168.363 40.3838 168.311 40.4191 168.428Z" fill="#263238"/>
<path d="M41.2067 165.158C41.1656 165.275 40.6189 165.187 39.984 164.971C39.3491 164.754 38.8671 164.485 38.9082 164.368C38.9494 164.257 39.4961 164.339 40.131 164.555C40.7658 164.778 41.2479 165.047 41.2067 165.158Z" fill="#263238"/>
<path d="M42.7172 161.853C42.6349 161.935 42.2587 161.689 41.9882 161.227C41.7178 160.765 41.6943 160.32 41.806 160.285C41.9236 160.25 42.1293 160.595 42.3645 161.005C42.6055 161.426 42.8054 161.771 42.7172 161.853Z" fill="#263238"/>
<path d="M40.8953 175.383C40.9247 175.5 40.4485 175.716 39.8372 175.862C39.4845 175.95 39.1611 175.991 38.9495 175.991L38.8613 175.734C39.0201 175.704 39.12 175.71 39.1435 175.757C39.1611 175.804 39.1024 175.886 38.973 175.979L38.8848 175.722C39.073 175.622 39.3786 175.517 39.7314 175.429C40.3486 175.295 40.8659 175.266 40.8953 175.383Z" fill="#263238"/>
<path d="M41.7473 181.179C41.7943 181.29 41.1888 181.636 40.4011 181.94C39.6133 182.25 38.9373 182.408 38.8903 182.297C38.8432 182.185 39.4487 181.846 40.2365 181.536C41.0242 181.226 41.7002 181.068 41.7473 181.179Z" fill="#263238"/>
<path d="M37.0922 178.606C37.1334 178.723 36.7278 178.963 36.1928 179.139C35.6579 179.32 35.1934 179.373 35.1523 179.261C35.1111 179.144 35.5168 178.91 36.0517 178.729C36.5867 178.548 37.0511 178.489 37.0922 178.606Z" fill="#263238"/>
<path d="M37.4449 166.813C37.4155 166.93 36.7159 166.86 35.9047 166.574C35.0934 166.287 34.5056 165.907 34.5585 165.796C34.6114 165.684 35.2639 165.883 36.0517 166.158C36.8394 166.439 37.4743 166.691 37.4449 166.813Z" fill="#263238"/>
<path d="M48.7078 165.532C48.7725 165.631 48.3786 166.011 47.8261 166.374C47.2735 166.737 46.7679 166.947 46.7032 166.848C46.6386 166.748 47.0324 166.368 47.585 166.005C48.1376 165.643 48.6432 165.426 48.7078 165.532Z" fill="#263238"/>
<path d="M49.3247 171.346C49.3482 171.463 48.9367 171.651 48.3959 171.762C47.8609 171.873 47.4083 171.867 47.3789 171.75C47.3554 171.633 47.7669 171.446 48.3077 171.335C48.8427 171.224 49.2953 171.229 49.3247 171.346Z" fill="#263238"/>
<path d="M50.0358 177.893C49.9829 178.004 49.3892 177.834 48.7014 177.518C48.0136 177.202 47.5021 176.857 47.555 176.746C47.6079 176.635 48.2017 176.805 48.8895 177.12C49.5714 177.436 50.0828 177.781 50.0358 177.893Z" fill="#263238"/>
<path d="M48.5255 184.257C48.4315 184.333 48.0435 184.017 47.6614 183.555C47.2792 183.087 47.0441 182.648 47.1323 182.572C47.2263 182.496 47.6143 182.812 47.9964 183.274C48.3844 183.742 48.6196 184.181 48.5255 184.257Z" fill="#263238"/>
<path d="M48.22 161.245C48.2964 161.338 48.0377 161.66 47.5968 161.877C47.1559 162.099 46.7444 162.111 46.715 161.994C46.6798 161.877 47.0031 161.684 47.397 161.485C47.7967 161.292 48.1435 161.151 48.22 161.245Z" fill="#263238"/>
<path d="M53.7394 167.111C53.7806 167.223 53.2691 167.503 52.5696 167.597C51.87 167.696 51.3057 167.562 51.3116 167.445C51.3174 167.322 51.8583 167.252 52.5108 167.164C53.1575 167.082 53.6983 167 53.7394 167.111Z" fill="#263238"/>
<path d="M52.6401 161.847C52.693 161.952 52.1874 162.314 51.4643 162.543C50.7413 162.771 50.1181 162.771 50.1005 162.654C50.0829 162.531 50.6413 162.344 51.3291 162.127C52.0169 161.905 52.5872 161.735 52.6401 161.847Z" fill="#263238"/>
<path d="M54.9443 175.272C54.9443 175.389 54.0743 175.465 53.0279 175.277C51.9815 175.09 51.1938 174.716 51.2349 174.605C51.2761 174.488 52.0932 174.669 53.1043 174.845C54.1155 175.032 54.9443 175.149 54.9443 175.272Z" fill="#263238"/>
<path d="M52.893 182.923C52.8225 183.016 52.1817 182.642 51.5468 182.004C50.906 181.367 50.5357 180.729 50.6297 180.659C50.7297 180.583 51.2411 181.08 51.8584 181.694C52.4697 182.314 52.9694 182.829 52.893 182.923Z" fill="#263238"/>
<path d="M43.8757 155.617C43.9404 155.71 42.1239 156.442 40.0252 158.647C37.9265 160.799 35.7632 164.602 35.2283 169.194C34.9755 171.475 35.193 173.686 35.5163 175.657C35.8573 177.629 36.3158 179.384 36.7332 180.846C37.1565 182.308 37.5444 183.478 37.8031 184.286C38.0618 185.099 38.2028 185.549 38.1735 185.561C38.1441 185.572 37.9559 185.14 37.6444 184.344C37.3328 183.549 36.9037 182.39 36.4393 180.934C35.9807 179.477 35.4928 177.722 35.1224 175.728C34.7697 173.739 34.5346 171.493 34.7932 169.147C35.34 164.45 37.6032 160.577 39.8018 158.436C40.8953 157.348 41.924 156.623 42.6765 156.202C43.0409 155.974 43.3525 155.851 43.5583 155.745C43.7581 155.652 43.8698 155.605 43.8757 155.617Z" fill="#263238"/>
<path d="M49.8659 185.842C49.7719 185.795 50.8536 184.134 51.8412 181.151C52.8582 178.197 53.6988 173.827 53.0228 169.083C52.7053 166.714 52.0175 164.52 51.1534 162.648C50.2539 160.8 49.0958 159.285 47.9672 158.226C46.7973 157.197 45.6451 156.606 44.8397 156.261C44.0285 155.921 43.5406 155.845 43.5464 155.81C43.5464 155.798 43.6699 155.804 43.905 155.839C44.1343 155.88 44.4753 155.956 44.8985 156.108C45.7392 156.413 46.9266 156.968 48.167 157.998C49.3721 159.068 50.5655 160.578 51.5178 162.479C52.4231 164.386 53.1345 166.614 53.4578 169.024C54.1456 173.862 53.2403 178.296 52.1351 181.256C51.8882 182.01 51.5649 182.66 51.3297 183.239C51.0475 183.8 50.8124 184.292 50.6008 184.678C50.1481 185.438 49.8895 185.854 49.8659 185.842Z" fill="#263238"/>
<path d="M32.8535 184.806H57.0603L57.2073 189.626H32.8535V184.806Z" fill="#FF6652"/>
<path d="M34.9111 187.217L36.2984 201.934H53.9979L55.4205 187.381L34.9111 187.217Z" fill="#FF6652"/>
<path d="M57.2072 189.685C57.2072 189.808 51.7581 189.902 45.0333 189.902C38.3085 189.902 32.8594 189.802 32.8594 189.685C32.8594 189.568 38.3085 189.469 45.0333 189.469C51.7581 189.469 57.2072 189.562 57.2072 189.685Z" fill="#263238"/>
<path d="M54.7501 194.165C54.7736 194.177 54.609 194.516 54.2328 195.084C53.8507 195.645 53.2512 196.441 52.3577 197.289L52.246 197.394L52.1343 197.277C50.9704 196.061 49.3656 194.569 47.3905 193.147L47.6609 193.136C46.9849 193.727 46.2795 194.341 45.5565 194.973C44.6983 195.715 43.8635 196.441 43.07 197.125L42.9348 197.242L42.7996 197.125C41.2947 195.862 39.9192 194.715 38.7553 193.744L38.9904 193.721C38.1557 194.733 37.4562 195.587 36.8978 196.259C36.3922 196.856 36.1042 197.172 36.0748 197.154C36.0513 197.137 36.2923 196.774 36.7508 196.148C37.274 195.452 37.9382 194.569 38.7259 193.522L38.8259 193.387L38.9611 193.498C40.1426 194.452 41.5357 195.575 43.0641 196.809L42.7878 196.815C43.5814 196.125 44.4102 195.4 45.2626 194.651C45.9856 194.019 46.6969 193.411 47.3729 192.82L47.5022 192.709L47.6374 192.808C49.6301 194.265 51.2232 195.809 52.3577 197.073L52.1343 197.067C53.9389 195.446 54.6796 194.118 54.7501 194.165Z" fill="#263238"/>
<path d="M345.614 197.897H89.3674C84.6354 197.897 80.8027 194.083 80.8027 189.374V26.5216C80.8027 21.8127 84.6354 17.9988 89.3674 17.9988H345.614C350.346 17.9988 354.178 21.8127 354.178 26.5216V189.374C354.178 194.077 350.346 197.897 345.614 197.897Z" fill="#455A64"/>
<path d="M357.571 202.015H82.3198C76.5414 202.015 71.8564 197.353 71.8564 191.603V186.274H368.034V191.603C368.034 197.359 363.349 202.015 357.571 202.015Z" fill="#455A64"/>
<path d="M190.545 184.589L194.219 190.409H245.936L249.345 184.589H190.545Z" fill="#263238"/>
<path d="M351.827 184.589C351.827 184.688 291.151 184.764 216.321 184.764C141.467 184.764 80.8027 184.688 80.8027 184.589C80.8027 184.489 141.467 184.413 216.321 184.413C291.151 184.413 351.827 184.489 351.827 184.589Z" fill="#263238"/>
<path d="M343.357 179.834H90.5614C89.4974 179.834 88.6392 178.974 88.6392 177.921V30.2597C88.6392 29.201 89.5033 28.3469 90.5614 28.3469H343.363C344.427 28.3469 345.285 29.2068 345.285 30.2597V177.921C345.279 178.974 344.421 179.834 343.357 179.834Z" fill="#EBEBEB"/>
<path d="M345.009 180.056H88.3569L88.6332 39.6655H345.009V180.056Z" fill="white"/>
<path d="M109.683 34.1965C109.683 35.3255 108.766 36.238 107.632 36.238C106.497 36.238 105.58 35.3255 105.58 34.1965C105.58 33.0676 106.497 32.155 107.632 32.155C108.766 32.155 109.683 33.0676 109.683 34.1965Z" fill="#263238"/>
<path d="M97.2629 34.1965C97.2629 35.3255 96.3459 36.238 95.2113 36.238C94.0767 36.238 93.1597 35.3255 93.1597 34.1965C93.1597 33.0676 94.0767 32.155 95.2113 32.155C96.3459 32.155 97.2629 33.0676 97.2629 34.1965Z" fill="#263238"/>
<path d="M103.223 34.1965C103.223 35.3255 102.306 36.238 101.171 36.238C100.037 36.238 99.1196 35.3255 99.1196 34.1965C99.1196 33.0676 100.037 32.155 101.171 32.155C102.306 32.155 103.223 33.0676 103.223 34.1965Z" fill="#263238"/>
<path d="M345.279 166.497H88.3564V180.056H345.279V166.497Z" fill="#263238"/>
<path d="M98.0681 174.844V175.277H96.0223V174.931L97.1275 173.89C97.3979 173.633 97.445 173.475 97.445 173.317C97.445 173.065 97.2686 172.919 96.9276 172.919C96.6572 172.919 96.4338 173.013 96.2751 173.206L95.9165 172.931C96.1281 172.644 96.5161 172.475 96.9688 172.475C97.5743 172.475 97.9623 172.779 97.9623 173.27C97.9623 173.539 97.8858 173.785 97.5037 174.142L96.763 174.844H98.0681Z" fill="white"/>
<path d="M98.3442 173.474C98.3442 173.275 98.4912 173.147 98.6676 173.147C98.8439 173.147 98.9909 173.275 98.9909 173.474C98.9909 173.661 98.8439 173.802 98.6676 173.802C98.4912 173.802 98.3442 173.667 98.3442 173.474ZM98.3442 174.978C98.3442 174.779 98.4912 174.65 98.6676 174.65C98.8439 174.65 98.9909 174.779 98.9909 174.978C98.9909 175.165 98.8439 175.305 98.6676 175.305C98.4912 175.305 98.3442 175.171 98.3442 174.978Z" fill="white"/>
<path d="M100.284 172.516V175.277H99.7671V172.943H99.1792V172.51H100.284V172.516Z" fill="white"/>
<path d="M103.311 174.651H102.817V175.277H102.317V174.651H100.795V174.294L102.165 172.516H102.717L101.43 174.218H102.341V173.662H102.823V174.218H103.317V174.651H103.311Z" fill="white"/>
<path d="M318.427 173.545H107.844V174.499H318.427V173.545Z" fill="white"/>
<path d="M173.492 172.522H107.685V175.072H173.492V172.522Z" fill="#FF6652"/>
<path d="M175.621 174.025C175.621 175.786 174.186 177.213 172.417 177.213C170.647 177.213 169.213 175.786 169.213 174.025C169.213 172.264 170.647 170.837 172.417 170.837C174.186 170.837 175.621 172.264 175.621 174.025Z" fill="#FF6652"/>
<path d="M323.73 173.996C323.73 174.545 323.283 174.89 322.713 174.89C321.955 174.89 321.514 174.405 321.514 173.516C321.514 172.568 322.066 172.048 322.872 172.048C323.148 172.048 323.412 172.106 323.601 172.223L323.412 172.609C323.26 172.51 323.077 172.475 322.883 172.475C322.36 172.475 322.031 172.796 322.031 173.428V173.434C322.196 173.241 322.466 173.147 322.772 173.147C323.324 173.147 323.73 173.481 323.73 173.996ZM323.23 174.019C323.23 173.732 323.013 173.551 322.678 173.551C322.343 173.551 322.113 173.75 322.113 174.025C322.113 174.282 322.319 174.493 322.689 174.493C323.013 174.487 323.23 174.306 323.23 174.019Z" fill="white"/>
<path d="M323.983 173.047C323.983 172.848 324.13 172.72 324.306 172.72C324.483 172.72 324.63 172.848 324.63 173.047C324.63 173.234 324.483 173.375 324.306 173.375C324.13 173.375 323.983 173.234 323.983 173.047ZM323.983 174.551C323.983 174.352 324.13 174.223 324.306 174.223C324.483 174.223 324.63 174.352 324.63 174.551C324.63 174.738 324.483 174.878 324.306 174.878C324.13 174.878 323.983 174.738 323.983 174.551Z" fill="white"/>
<path d="M324.965 173.469C324.965 172.562 325.465 172.048 326.123 172.048C326.787 172.048 327.287 172.562 327.287 173.469C327.287 174.376 326.787 174.89 326.123 174.89C325.465 174.89 324.965 174.376 324.965 173.469ZM326.764 173.469C326.764 172.802 326.505 172.492 326.123 172.492C325.747 172.492 325.482 172.802 325.482 173.469C325.482 174.136 325.747 174.446 326.123 174.446C326.505 174.446 326.764 174.136 326.764 173.469Z" fill="white"/>
<path d="M327.627 173.469C327.627 172.562 328.127 172.048 328.785 172.048C329.449 172.048 329.949 172.562 329.949 173.469C329.949 174.376 329.449 174.89 328.785 174.89C328.127 174.89 327.627 174.376 327.627 173.469ZM329.432 173.469C329.432 172.802 329.173 172.492 328.791 172.492C328.415 172.492 328.15 172.802 328.15 173.469C328.15 174.136 328.415 174.446 328.791 174.446C329.167 174.446 329.432 174.136 329.432 173.469Z" fill="white"/>
<path d="M334.434 173.3H333.476V170.544H336.233V171.498H334.434V173.3Z" fill="white"/>
<path d="M336.239 176.891H333.47V174.148H334.428V175.938H336.239V176.891Z" fill="white"/>
<path d="M340.647 176.891H337.884V175.937H339.683V174.136H340.647V176.891Z" fill="white"/>
<path d="M340.648 173.294H339.69V171.498H337.879V170.544H340.648V173.294Z" fill="white"/>
<path d="M123.556 48.0129H108.425L100.866 61.0458L108.425 74.0845H123.556L131.115 61.0458L123.556 48.0129Z" fill="#EBEBEB"/>
<path d="M109.66 63.6024C108.984 62.8595 108.302 62.1049 107.808 61.2275C107.314 60.3501 107.02 59.3322 107.185 58.3378C107.279 57.7587 107.526 57.2089 107.567 56.6239C107.62 55.8167 107.279 54.9743 107.567 54.2197C108.014 53.0381 109.613 52.8568 110.583 52.0437C111.335 51.4061 111.706 50.3765 112.535 49.8442C113.258 49.3763 114.192 49.388 115.045 49.5108C115.897 49.6336 116.761 49.8442 117.614 49.7331C118.225 49.6512 118.795 49.4055 119.395 49.2593C119.995 49.113 120.659 49.0721 121.188 49.3821C121.717 49.6921 122.017 50.4409 121.67 50.9439C122.664 50.4877 123.922 51.2598 124.192 52.3069C124.462 53.3598 123.922 54.4946 123.081 55.1907C122.24 55.8868 121.153 56.2086 120.083 56.4075C117.049 56.9749 113.752 56.6531 111.136 55.0211" fill="#263238"/>
<path d="M123.686 66.8194C123.587 64.9534 123.057 61.1278 122.546 57.6707C121.993 53.9503 118.66 51.2829 114.892 51.5345L114.516 51.5579C110.495 52.0609 108.678 55.7403 109.296 59.7297L110.477 74.0905H120.295C120.295 74.0905 120.065 71.5693 120.059 71.5459C120.059 71.54 123.898 70.6802 123.686 66.8194Z" fill="#FFBE9D"/>
<path d="M120.059 71.4879C120.059 71.4879 117.619 71.8506 114.903 70.394C114.903 70.394 116.285 73.0907 120.135 72.4882L120.059 71.4879Z" fill="#EB996E"/>
<path d="M121.84 59.612C121.775 59.6881 121.335 59.4073 120.741 59.4482C120.147 59.4833 119.73 59.8168 119.659 59.7466C119.624 59.7173 119.689 59.5828 119.865 59.4307C120.041 59.2786 120.353 59.1265 120.723 59.1031C121.094 59.0797 121.417 59.1967 121.605 59.3254C121.799 59.4482 121.87 59.5769 121.84 59.612Z" fill="#263238"/>
<path d="M115.985 60.1154C115.92 60.1915 115.48 59.9107 114.886 59.9516C114.292 59.9867 113.875 60.3202 113.804 60.25C113.769 60.2207 113.834 60.0862 114.016 59.9341C114.192 59.782 114.504 59.6299 114.874 59.6065C115.244 59.5831 115.568 59.7001 115.756 59.8288C115.944 59.9516 116.015 60.0803 115.985 60.1154Z" fill="#263238"/>
<path d="M118.442 64.3675C118.436 64.3324 118.8 64.2447 119.4 64.1277C119.553 64.1043 119.694 64.0633 119.712 63.958C119.741 63.8469 119.664 63.6889 119.582 63.5135C119.412 63.1566 119.241 62.7823 119.053 62.3903C118.318 60.7876 117.772 59.4714 117.836 59.4421C117.901 59.4129 118.553 60.6881 119.288 62.2909C119.465 62.6887 119.635 63.063 119.8 63.4257C119.87 63.5953 119.982 63.7825 119.917 64.0165C119.882 64.1335 119.776 64.2213 119.682 64.2564C119.588 64.2914 119.5 64.2973 119.423 64.309C118.824 64.3733 118.448 64.4026 118.442 64.3675Z" fill="#263238"/>
<path d="M115.979 57.7747C115.932 57.9385 115.332 57.9034 114.639 58.0321C113.939 58.1491 113.393 58.3889 113.287 58.2544C113.24 58.19 113.328 58.0321 113.545 57.8566C113.763 57.687 114.11 57.5115 114.527 57.4413C114.944 57.3652 115.332 57.4062 115.597 57.4939C115.862 57.5817 116.003 57.6987 115.979 57.7747Z" fill="#263238"/>
<path d="M121.505 57.9101C121.411 58.0505 120.987 57.9394 120.494 57.9628C120 57.9745 119.588 58.1149 119.482 57.9803C119.435 57.916 119.494 57.7756 119.665 57.6352C119.835 57.4948 120.129 57.372 120.47 57.3603C120.811 57.3486 121.111 57.4539 121.293 57.5767C121.475 57.7054 121.546 57.8399 121.505 57.9101Z" fill="#263238"/>
<path d="M109.807 62.561C109.736 62.5376 107.085 61.9526 107.35 64.5908C107.614 67.2231 110.483 66.3691 110.477 66.293C110.477 66.2111 109.807 62.561 109.807 62.561Z" fill="#FFBE9D"/>
<path d="M109.301 65.4271C109.289 65.4213 109.26 65.4622 109.183 65.509C109.113 65.55 108.984 65.585 108.837 65.5499C108.549 65.4739 108.266 65.0586 108.208 64.5848C108.178 64.3449 108.208 64.111 108.272 63.9179C108.331 63.719 108.449 63.5728 108.584 63.5318C108.719 63.485 108.831 63.5611 108.866 63.6313C108.907 63.7015 108.895 63.7541 108.913 63.76C108.919 63.7658 108.966 63.7132 108.931 63.602C108.913 63.5494 108.878 63.4909 108.807 63.45C108.737 63.4032 108.643 63.3856 108.543 63.409C108.343 63.4441 108.172 63.6488 108.102 63.8653C108.02 64.0817 107.978 64.3449 108.014 64.614C108.084 65.1405 108.408 65.6143 108.801 65.6845C108.989 65.7137 109.142 65.6435 109.219 65.5734C109.307 65.4915 109.313 65.4271 109.301 65.4271Z" fill="#EB996E"/>
<path d="M122.352 54.0617C122.17 55.1088 120.036 56.0681 118.26 56.0213C116.626 55.9745 115.821 55.1673 114.633 54.594C113.881 54.2314 113.881 54.2314 112.864 54.3951C112.041 54.5297 111.612 55.4949 111.147 56.1851C112.029 58.0979 111.67 60.3208 111.3 62.3915C111.259 62.6197 111.206 62.8653 111.03 63.0233C110.73 63.2865 110.248 63.1286 109.96 62.8595C109.489 62.4325 109.278 61.8007 109.125 61.1865C108.772 59.7885 108.643 58.3261 108.86 56.9046C109.084 55.4832 109.672 54.0968 110.653 53.038C111.876 51.7102 113.657 50.9439 115.468 50.8503C117.273 50.7567 119.089 51.3124 120.6 52.301C121.294 52.7631 121.952 53.3247 122.352 54.0617Z" fill="#263238"/>
<path d="M118.836 65.7026C118.384 65.492 117.937 65.2873 117.484 65.0767C117.408 65.0416 117.325 65.0065 117.237 65.0124C117.143 65.0241 117.067 65.0943 117.002 65.1703C116.691 65.5447 116.608 66.1179 116.855 66.5449C117.096 66.972 117.666 67.1943 118.119 67.0071C118.595 66.8082 118.83 66.2583 118.866 65.7436L118.836 65.7026Z" fill="#EB996E"/>
<path d="M118.166 67.106C118.189 67.1294 117.884 67.3224 117.372 67.1762C117.125 67.1002 116.843 66.913 116.673 66.6088C116.496 66.3105 116.432 65.8893 116.584 65.5091C116.655 65.3219 116.773 65.1522 116.914 65.0235C116.984 64.9592 117.055 64.9007 117.143 64.8539C117.231 64.7896 117.413 64.7837 117.496 64.8305C117.801 65.0001 118.013 65.1464 118.219 65.2809C118.613 65.5442 118.848 65.7196 118.824 65.7606C118.801 65.7957 118.53 65.6845 118.107 65.4681C117.86 65.3394 117.625 65.2166 117.384 65.0937C117.325 65.0762 117.331 65.0762 117.278 65.1054C117.225 65.1405 117.16 65.1873 117.113 65.24C117.008 65.3453 116.919 65.474 116.867 65.6202C116.749 65.9127 116.79 66.2344 116.919 66.4801C117.049 66.7258 117.249 66.8896 117.449 66.9773C117.854 67.147 118.154 67.0534 118.166 67.106Z" fill="#263238"/>
<path d="M117.737 61.0465C117.708 61.0465 117.713 60.8008 117.59 60.3913C117.472 59.9877 117.19 59.3969 116.579 58.9465C115.985 58.496 115.015 58.2445 114.08 58.5955C113.152 58.9172 112.352 59.8999 112.364 61.0465C112.352 62.193 113.152 63.1757 114.08 63.4974C115.015 63.8484 115.985 63.5969 116.579 63.1465C117.19 62.696 117.478 62.1052 117.59 61.7016C117.713 61.2921 117.708 61.0465 117.737 61.0465C117.749 61.0465 117.755 61.105 117.761 61.2219C117.766 61.3389 117.755 61.5144 117.708 61.7309C117.619 62.1637 117.355 62.8072 116.708 63.3161C116.085 63.825 115.021 64.1292 113.981 63.7607C112.946 63.4214 112.041 62.3275 112.052 61.0465C112.041 59.7654 112.946 58.6715 113.981 58.3323C115.027 57.9579 116.085 58.2621 116.708 58.7768C117.355 59.2857 117.619 59.935 117.708 60.3621C117.755 60.5785 117.766 60.754 117.761 60.871C117.755 60.988 117.749 61.0465 117.737 61.0465Z" fill="#263238"/>
<path d="M124.339 60.7889C124.309 60.7889 124.309 60.5491 124.197 60.1513C124.086 59.7594 123.809 59.1861 123.21 58.7474C122.634 58.3087 121.687 58.0688 120.776 58.4081C119.871 58.7181 119.095 59.6775 119.107 60.7947C119.095 61.912 119.877 62.8655 120.776 63.1814C121.687 63.5206 122.634 63.2808 123.21 62.8421C123.809 62.4034 124.086 61.8301 124.197 61.4382C124.315 61.0287 124.309 60.7889 124.339 60.7889C124.35 60.7889 124.356 60.8474 124.362 60.9644C124.368 61.0755 124.356 61.2452 124.315 61.4616C124.233 61.8828 123.974 62.5087 123.345 63.0117C122.74 63.5089 121.705 63.8073 120.682 63.4446C119.671 63.1112 118.789 62.0465 118.801 60.7947C118.789 59.5429 119.671 58.4783 120.682 58.1449C121.699 57.7822 122.734 58.0805 123.345 58.5777C123.974 59.075 124.233 59.7067 124.315 60.1279C124.362 60.3385 124.368 60.5081 124.362 60.6251C124.356 60.7304 124.35 60.7889 124.339 60.7889Z" fill="#263238"/>
<path d="M118.954 60.1864C118.895 60.2449 118.63 60.0753 118.278 60.087C117.925 60.087 117.672 60.2683 117.607 60.2098C117.525 60.1688 117.772 59.7886 118.272 59.7769C118.771 59.7711 119.03 60.1396 118.954 60.1864Z" fill="#263238"/>
<path d="M112.376 60.6599C112.429 60.7301 111.912 61.1922 111.23 61.7012C110.548 62.2101 109.948 62.5669 109.901 62.4967C109.848 62.4265 110.366 61.9644 111.048 61.4555C111.729 60.9466 112.323 60.5897 112.376 60.6599Z" fill="#263238"/>
<path d="M166.938 60.9172C166.938 60.9991 160.136 61.0693 151.748 61.0693C143.36 61.0693 136.559 60.9991 136.559 60.9172C136.559 60.8353 143.36 60.7651 151.748 60.7651C160.136 60.7651 166.938 60.8295 166.938 60.9172Z" fill="#263238"/>
<path d="M152.889 64.0819C152.889 64.1638 149.28 64.234 144.824 64.234C140.368 64.234 136.758 64.1638 136.758 64.0819C136.758 64 140.368 63.9298 144.824 63.9298C149.28 63.9239 152.889 63.9941 152.889 64.0819Z" fill="#263238"/>
<path d="M257.932 84.2869C257.932 84.2869 266.003 88.2002 268.842 98.3083C271.682 108.416 280.358 134.74 280.358 134.74C280.358 134.74 285.319 140.548 285.854 144.848C286.383 149.147 285.325 159.553 283.726 161.495C282.133 163.438 279.858 163.116 279.858 163.116L258.973 161.145L250.749 106.346L257.932 84.2869Z" fill="#FF6652"/>
<path d="M188.874 83.333C188.874 83.333 173.944 87.9951 170.223 92.0488L182.45 148.655L182.256 166.514H253.054C253.054 165.631 253.688 107.217 253.688 107.217L257.944 84.2923L232.779 79.8817L227.818 76.0034L199.82 77.4132L195.564 81.6483L188.874 83.333Z" fill="#FF6652"/>
<g opacity="0.3">
<path opacity="0.3" d="M194.548 132.44C194.331 131.961 194.019 131.44 193.502 131.335C192.65 131.159 192.079 132.165 191.791 132.978C189.493 139.46 186.448 145.42 182.491 151.048L182.309 159.74C186.436 156.283 190.504 152.58 193.137 147.895C195.759 143.209 196.77 137.33 194.548 132.44Z" fill="black"/>
</g>
<path d="M170.217 92.0496C170.217 92.0496 165.297 98.7239 163.251 103.082C161.206 107.44 144.276 144.035 143.259 147.814C142.236 151.592 139.609 163.496 147.345 166.257H163.251L179.217 134.126L180.034 96.8345L170.217 92.0496Z" fill="#FF6652"/>
<path d="M164.274 143.046C164.25 143.07 163.921 142.736 163.186 142.321C162.457 141.911 161.317 141.438 159.847 141.116C159.113 140.958 158.296 140.829 157.414 140.777C156.532 140.724 155.586 140.736 154.622 140.958C152.694 141.385 150.777 142.602 149.266 144.304C147.732 146.006 146.792 148.018 146.233 149.914C145.669 151.815 145.428 153.599 145.275 155.091C145.128 156.588 145.069 157.805 145.016 158.647C144.993 159.039 144.969 159.361 144.958 159.618C144.94 159.84 144.928 159.957 144.917 159.957C144.905 159.957 144.899 159.84 144.899 159.618C144.899 159.361 144.899 159.039 144.905 158.647C144.922 157.805 144.946 156.582 145.064 155.073C145.187 153.57 145.41 151.768 145.963 149.832C146.51 147.907 147.468 145.842 149.037 144.099C150.583 142.356 152.558 141.11 154.563 140.683C155.562 140.461 156.538 140.455 157.431 140.525C158.325 140.589 159.154 140.73 159.894 140.905C161.382 141.256 162.522 141.765 163.245 142.216C163.604 142.444 163.868 142.648 164.033 142.801C164.197 142.953 164.28 143.04 164.274 143.046Z" fill="#263238"/>
<path d="M156.732 136.646C156.732 136.623 156.921 136.594 157.267 136.559C157.614 136.518 158.12 136.506 158.743 136.541C159.366 136.57 160.107 136.676 160.912 136.863C161.712 137.062 162.582 137.354 163.446 137.758C164.304 138.173 165.08 138.659 165.738 139.156C166.391 139.665 166.938 140.168 167.355 140.636C167.772 141.098 168.084 141.496 168.266 141.788C168.454 142.081 168.554 142.244 168.537 142.256C168.49 142.291 168.061 141.654 167.196 140.782C166.767 140.343 166.215 139.864 165.568 139.384C164.91 138.91 164.151 138.442 163.311 138.039C162.464 137.641 161.623 137.354 160.842 137.144C160.054 136.945 159.337 136.822 158.725 136.769C157.503 136.64 156.732 136.705 156.732 136.646Z" fill="#263238"/>
<path d="M171.111 134.885C171.105 134.908 170.846 134.885 170.376 134.826C169.906 134.768 169.224 134.698 168.383 134.633C166.702 134.505 164.363 134.475 161.8 134.78C159.243 135.09 156.974 135.669 155.369 136.184C154.563 136.441 153.917 136.669 153.476 136.839C153.035 137.002 152.782 137.084 152.776 137.067C152.771 137.049 153 136.926 153.435 136.728C153.864 136.523 154.499 136.265 155.304 135.979C156.903 135.406 159.184 134.786 161.77 134.475C164.351 134.171 166.72 134.236 168.407 134.417C169.253 134.505 169.935 134.61 170.4 134.704C170.864 134.809 171.117 134.867 171.111 134.885Z" fill="#263238"/>
<path d="M216.426 103.619C216.42 103.625 216.367 103.561 216.261 103.426C216.15 103.274 216.003 103.081 215.826 102.847C215.438 102.309 214.898 101.566 214.228 100.642C212.852 98.7117 210.942 96.0267 208.684 92.8621L208.931 92.827C208.073 95.3306 207.127 98.0975 206.133 101.005L206.068 101.186L205.91 101.081C205.804 101.016 205.692 100.94 205.581 100.87C204.264 100.04 203.1 99.0392 202.118 97.9571C201.137 96.8691 200.32 95.7108 199.644 94.5526C198.292 92.2303 197.474 89.9431 196.922 88.0069C196.369 86.0649 196.081 84.4504 195.893 83.3448C195.799 82.8125 195.729 82.3913 195.67 82.0696C195.64 81.9234 195.611 81.8181 195.593 81.742C195.564 81.6777 195.552 81.6367 195.558 81.6367C195.623 81.6075 195.793 82.2217 196.011 83.3273C196.24 84.427 196.557 86.0298 197.133 87.9543C197.71 89.873 198.538 92.1367 199.89 94.4181C200.566 95.5588 201.372 96.6936 202.342 97.764C203.317 98.8228 204.458 99.8056 205.745 100.619C205.857 100.689 205.969 100.759 206.068 100.823L205.845 100.905C206.85 97.998 207.803 95.237 208.667 92.7393L208.755 92.476L208.914 92.7042C211.13 95.8922 213.011 98.6005 214.363 100.548C215.009 101.49 215.521 102.251 215.897 102.801C216.062 103.046 216.191 103.245 216.297 103.403C216.385 103.543 216.432 103.614 216.426 103.619Z" fill="#263238"/>
<g opacity="0.3">
<path opacity="0.3" d="M234.854 130.639C234.196 137.184 235.648 143.923 238.946 149.621C242.237 155.324 247.069 160.401 253.083 163.133C253.277 157.324 252.995 150.48 253.189 144.672L234.854 130.639Z" fill="black"/>
</g>
<path d="M234.19 122.993C234.19 122.993 231.621 123.701 233.549 128.948C235.478 134.189 236.118 133.874 237.406 138.781C238.693 143.683 240.192 148.164 242.443 150.937C244.695 153.709 253.054 159.36 253.054 159.36L260.554 152.323C260.554 152.323 259.32 147.076 259.614 143.514C259.908 139.951 260.66 131.206 260.554 129.714C260.448 128.223 258.838 124.596 258.838 124.596V122.116L254.982 110.306C254.982 110.306 252.836 109.346 252.09 112.757L250.802 109.136C250.802 109.136 248.768 108.814 248.233 112.973C247.698 117.132 248.662 122.888 248.662 122.888L247.593 130.142L245.988 135.043L244.595 135.254C244.595 135.254 242.496 134.687 241.35 130.756C240.192 126.831 237.082 122.139 234.19 122.993Z" fill="#FFBE9D"/>
<path d="M258.039 141.536C258.033 141.536 258.021 141.443 258.003 141.267C257.992 141.063 257.974 140.805 257.95 140.483C257.909 139.77 257.856 138.781 257.792 137.547C257.674 135.002 257.515 131.458 257.327 127.322L257.363 127.41C257.016 127 256.404 126.877 255.846 127.018C255.276 127.152 254.77 127.503 254.453 128.03C253.8 129.077 253.759 130.446 253.559 131.768C253.153 134.757 252.765 137.6 252.413 140.197C252.236 141.49 252.048 142.724 251.79 143.864C251.543 145.005 251.196 146.046 250.861 146.976C250.532 147.907 250.238 148.749 250.055 149.509C249.873 150.27 249.797 150.937 249.814 151.486C249.838 152.586 250.161 153.148 250.108 153.159C250.097 153.165 250.038 153.025 249.926 152.75C249.838 152.469 249.714 152.048 249.691 151.492C249.656 150.937 249.714 150.246 249.885 149.474C250.055 148.702 250.338 147.848 250.655 146.912C250.978 145.976 251.308 144.952 251.543 143.818C251.784 142.689 251.96 141.46 252.131 140.168C252.477 137.57 252.854 134.727 253.253 131.738C253.347 131.071 253.418 130.416 253.536 129.755C253.653 129.1 253.835 128.445 254.2 127.883C254.541 127.31 255.14 126.889 255.775 126.743C256.404 126.585 257.151 126.725 257.58 127.24L257.609 127.281V127.328C257.751 131.463 257.874 135.008 257.962 137.559C257.992 138.793 258.021 139.781 258.039 140.501C258.044 140.823 258.044 141.08 258.044 141.285C258.05 141.449 258.044 141.536 258.039 141.536Z" fill="#EB996E"/>
<path d="M253.935 128.1C253.918 128.106 253.8 127.872 253.618 127.433C253.441 126.994 253.206 126.345 252.989 125.52C252.771 124.701 252.566 123.701 252.448 122.584C252.389 122.022 252.348 121.426 252.419 120.805C252.483 120.185 252.665 119.53 253.065 118.975C253.406 118.495 253.888 118.109 254.435 117.951L254.552 117.916L254.611 118.021C255.699 119.928 256.639 121.613 257.304 122.824C257.609 123.391 257.862 123.865 258.074 124.257C258.25 124.596 258.338 124.783 258.321 124.795C258.303 124.807 258.185 124.631 257.98 124.309C257.75 123.935 257.468 123.473 257.133 122.923C256.422 121.736 255.446 120.074 254.347 118.173L254.523 118.243C254.053 118.384 253.624 118.717 253.318 119.156C252.959 119.659 252.783 120.256 252.718 120.841C252.654 121.431 252.683 122.01 252.73 122.56C252.83 123.666 253.006 124.655 253.2 125.473C253.389 126.292 253.588 126.948 253.729 127.398C253.876 127.843 253.959 128.094 253.935 128.1Z" fill="#EB996E"/>
<path d="M252.142 129.065C252.119 129.065 252.095 128.825 252.072 128.387C252.054 127.884 252.025 127.264 251.995 126.532C251.942 124.965 251.895 122.8 251.86 120.408C251.842 118.015 251.748 115.845 251.954 114.272C252.054 113.488 252.213 112.862 252.354 112.447C252.495 112.025 252.612 111.815 252.63 111.821C252.683 111.838 252.301 112.745 252.166 114.301C252.019 115.851 252.142 118.015 252.16 120.408C252.195 122.8 252.207 124.965 252.207 126.532C252.201 127.264 252.189 127.884 252.183 128.393C252.177 128.82 252.166 129.059 252.142 129.065Z" fill="#EB996E"/>
<path d="M245.8 148.726C245.759 148.691 246.223 148.141 246.805 147.141C247.099 146.644 247.399 146.024 247.675 145.322C247.94 144.608 248.181 143.807 248.345 142.947C248.498 142.081 248.551 141.251 248.551 140.49C248.539 139.73 248.475 139.045 248.375 138.484C248.181 137.349 247.934 136.67 247.987 136.653C248.004 136.647 248.081 136.811 248.198 137.115C248.322 137.419 248.457 137.875 248.586 138.443C248.716 139.016 248.804 139.712 248.833 140.484C248.851 141.262 248.798 142.116 248.645 143C248.481 143.883 248.228 144.702 247.94 145.421C247.64 146.135 247.311 146.761 246.987 147.252C246.67 147.744 246.382 148.124 246.159 148.364C245.947 148.609 245.818 148.738 245.8 148.726Z" fill="#EB996E"/>
<path d="M258.967 145.058L265.475 147.304C265.475 147.304 271.688 144.104 275.973 147.304C280.258 150.504 283.979 158.933 282.804 162.343C282.804 162.343 279.847 165.976 277.596 166.508C275.344 167.041 266.597 164.935 262.959 164.168C259.308 163.402 253.042 159.348 253.042 159.348L258.967 145.058Z" fill="#FFBE9D"/>
<path d="M259.767 154.598C259.743 154.598 259.72 154.393 259.696 154.025C259.673 153.586 259.638 153.066 259.602 152.463C259.532 151.141 259.444 149.316 259.414 147.292C259.385 145.268 259.444 143.437 259.567 142.115C259.626 141.454 259.696 140.922 259.761 140.553C259.826 140.185 259.873 139.986 259.896 139.992C259.943 139.998 259.843 140.811 259.779 142.127C259.714 143.443 259.691 145.268 259.72 147.286C259.755 149.263 259.79 151.053 259.814 152.457C259.82 153.118 259.82 153.656 259.808 154.025C259.808 154.393 259.79 154.598 259.767 154.598Z" fill="#EB996E"/>
<path d="M281.229 147.047C281.182 147.094 280.512 146.17 279.066 145.105C277.637 144.041 275.321 142.906 272.581 142.754C269.836 142.608 267.408 143.479 265.874 144.38C264.316 145.281 263.552 146.123 263.511 146.076C263.499 146.065 263.681 145.848 264.046 145.497C264.416 145.146 264.986 144.678 265.762 144.199C267.297 143.234 269.777 142.298 272.599 142.456C275.421 142.613 277.784 143.813 279.201 144.936C279.918 145.497 280.441 146.03 280.765 146.416C281.088 146.808 281.247 147.042 281.229 147.047Z" fill="#263238"/>
<path d="M280.394 141.648C280.353 141.712 279.483 140.835 277.684 140.162C275.914 139.472 273.169 139.156 270.354 139.945C268.949 140.337 267.661 140.893 266.562 141.513C265.463 142.139 264.546 142.823 263.817 143.444C263.088 144.064 262.53 144.608 262.148 144.982C261.765 145.362 261.554 145.567 261.536 145.555C261.524 145.544 261.707 145.31 262.065 144.9C262.424 144.496 262.959 143.929 263.682 143.28C264.399 142.63 265.316 141.917 266.427 141.267C267.538 140.624 268.843 140.045 270.277 139.647C273.163 138.84 275.979 139.203 277.766 139.957C278.671 140.326 279.342 140.753 279.771 141.08C279.994 141.238 280.141 141.39 280.247 141.484C280.347 141.589 280.4 141.642 280.394 141.648Z" fill="#263238"/>
<path d="M280.447 136.968C280.429 137.026 279.294 136.681 277.402 136.43C276.455 136.295 275.321 136.219 274.063 136.219C272.805 136.237 271.423 136.342 269.989 136.582C268.561 136.839 267.226 137.213 266.033 137.623C264.852 138.05 263.811 138.506 262.97 138.957C261.283 139.84 260.331 140.548 260.296 140.501C260.284 140.483 260.513 140.302 260.948 139.98C261.16 139.817 261.43 139.629 261.754 139.43C262.077 139.232 262.441 138.986 262.865 138.769C263.699 138.296 264.746 137.816 265.933 137.366C267.132 136.939 268.484 136.552 269.93 136.289C271.382 136.044 272.781 135.944 274.057 135.944C275.332 135.962 276.479 136.061 277.425 136.225C277.901 136.283 278.325 136.395 278.701 136.471C279.077 136.547 279.394 136.634 279.647 136.71C280.17 136.857 280.452 136.95 280.447 136.968Z" fill="#263238"/>
<path d="M230.582 79.689C230.582 79.689 230.882 80.2505 231.035 81.4087C231.193 82.5611 231.17 84.2926 230.788 86.4335C230.594 87.504 230.335 88.6798 229.947 89.9374C229.541 91.1951 228.93 92.482 228.236 93.8274C226.837 96.5182 225.068 99.4488 223.028 102.578L222.787 102.947V102.508C222.781 100.443 222.781 98.2731 222.775 96.0152L223.004 96.1263C221.253 97.5302 219.413 99.0101 217.514 100.537L217.561 100.467C216.291 104.479 215.45 108.949 215.121 113.599C214.586 120.718 215.015 127.527 215.356 133.704C215.644 139.887 215.833 145.462 216.027 150.135C216.215 154.815 216.385 158.594 216.526 161.209C216.603 162.502 216.661 163.513 216.703 164.215C216.726 164.549 216.744 164.806 216.755 164.999C216.767 165.175 216.761 165.268 216.761 165.268C216.761 165.268 216.744 165.181 216.72 165.005C216.703 164.818 216.673 164.555 216.638 164.227C216.573 163.543 216.491 162.525 216.403 161.22C216.226 158.606 216.021 154.827 215.809 150.147C215.597 145.468 215.35 139.899 215.068 133.722C214.716 127.55 214.275 120.724 214.81 113.581C215.145 108.913 215.985 104.421 217.273 100.385L217.285 100.344L217.32 100.315C219.219 98.7937 221.064 97.3196 222.816 95.9157L223.046 95.7344V96.0269C223.04 98.2789 223.04 100.449 223.034 102.52L222.793 102.45C226.831 96.2199 230.118 90.8032 230.623 86.4218C231.029 84.2984 231.076 82.5845 230.941 81.4321C230.882 80.853 230.77 80.426 230.7 80.1335C230.617 79.8352 230.582 79.689 230.582 79.689Z" fill="#263238"/>
<path d="M220.036 155.143L219.824 155.137C218.972 155.161 218.213 155.933 218.213 156.781C218.213 157.629 218.966 158.407 219.812 158.436C220.665 158.466 221.47 157.74 221.523 156.898C221.588 156.05 220.882 155.225 220.036 155.143Z" fill="white"/>
<path d="M220.036 132.599L219.824 132.593C218.972 132.617 218.213 133.389 218.213 134.237C218.213 135.085 218.966 135.863 219.812 135.892C220.665 135.922 221.47 135.196 221.523 134.354C221.588 133.506 220.882 132.681 220.036 132.599Z" fill="white"/>
<path d="M219.818 112.429C220.671 112.458 221.476 111.733 221.529 110.891C221.588 110.048 220.882 109.223 220.036 109.142L219.824 109.136C218.972 109.159 218.213 109.931 218.213 110.779C218.213 111.622 218.966 112.4 219.818 112.429Z" fill="white"/>
<path d="M194.436 53.2724C192.372 51.0027 190.297 48.7038 188.792 46.0364C187.288 43.369 186.394 40.2512 186.894 37.2328C187.182 35.4662 187.94 33.7874 188.058 32.0033C188.222 29.5465 187.188 26.9785 188.058 24.6796C189.427 21.0821 194.294 20.5264 197.245 18.0403C199.544 16.1041 200.661 12.9629 203.194 11.3309C205.404 9.90941 208.244 9.93866 210.848 10.3072C213.452 10.6757 216.073 11.3309 218.683 10.9799C220.541 10.7283 222.293 9.98545 224.115 9.53504C225.937 9.08462 227.965 8.96763 229.588 9.90356C231.21 10.8395 232.121 13.1325 231.057 14.671C234.079 13.2846 237.917 15.6303 238.746 18.8359C239.575 22.0414 237.917 25.5102 235.354 27.6219C232.791 29.7395 229.482 30.7222 226.214 31.3364C216.955 33.0738 206.915 32.091 198.938 27.1072" fill="#263238"/>
<path d="M226.984 84.2405C226.531 80.7541 226.161 77.8469 226.137 77.4842C226.137 77.4842 237.847 74.8636 237.2 63.0825C236.888 57.3909 235.284 45.7093 233.714 35.1625C232.027 23.8377 221.864 15.7068 210.383 16.4672L209.243 16.5432C196.981 18.0758 191.443 29.2953 193.324 41.4508L199.938 82.2048C199.938 82.2048 202.759 91.219 208.802 92.7809L216.42 103.614L217.678 98.9522L223.357 94.0327C223.357 94.0327 224.662 92.6288 226.155 89.8853C227.389 87.6449 227.131 85.3343 226.984 84.2405Z" fill="#FFBE9D"/>
<path d="M226.144 77.3145C226.144 77.3145 218.707 78.4201 210.424 73.9802C210.424 73.9802 214.639 82.2106 226.373 80.3621L226.144 77.3145Z" fill="#EB996E"/>
<path d="M231.563 41.1109C231.369 41.3449 230.023 40.485 228.206 40.6137C226.39 40.7131 225.114 41.731 224.903 41.5262C224.797 41.4327 224.985 41.0232 225.538 40.5669C226.084 40.1106 227.031 39.6368 228.165 39.5666C229.3 39.4964 230.282 39.8474 230.858 40.2393C231.446 40.6196 231.657 41.0056 231.563 41.1109Z" fill="#263238"/>
<path d="M213.716 42.6378C213.523 42.8717 212.176 42.0119 210.36 42.1405C208.543 42.24 207.268 43.2578 207.056 43.0531C206.95 42.9595 207.138 42.55 207.691 42.0938C208.232 41.6375 209.184 41.1637 210.313 41.0935C211.447 41.0233 212.429 41.3743 213.005 41.7662C213.593 42.1464 213.811 42.5325 213.716 42.6378Z" fill="#263238"/>
<path d="M221.211 55.6177C221.193 55.5182 222.31 55.2433 224.127 54.8923C224.585 54.8163 225.02 54.6934 225.079 54.3717C225.167 54.0324 224.938 53.5469 224.679 53.0205C224.168 51.9324 223.633 50.7918 223.069 49.5926C220.823 44.7082 219.165 40.6837 219.365 40.5959C219.565 40.5082 221.54 44.3923 223.786 49.2767C224.327 50.4817 224.844 51.6283 225.338 52.728C225.549 53.2427 225.89 53.816 225.702 54.5238C225.602 54.8748 225.279 55.1497 224.985 55.2491C224.691 55.3603 224.432 55.3837 224.203 55.4129C222.369 55.6352 221.229 55.7171 221.211 55.6177Z" fill="#263238"/>
<path d="M213.705 35.5136C213.558 36.0167 211.73 35.9055 209.613 36.3033C207.491 36.6601 205.81 37.3972 205.498 36.9702C205.357 36.7654 205.628 36.2858 206.292 35.7593C206.95 35.2387 208.02 34.7122 209.29 34.4841C210.56 34.2618 211.747 34.3846 212.547 34.6479C213.346 34.917 213.769 35.2796 213.705 35.5136Z" fill="#263238"/>
<path d="M230.54 35.9169C230.246 36.3498 228.964 36.0047 227.459 36.0865C225.948 36.1158 224.696 36.5487 224.373 36.1392C224.232 35.9403 224.402 35.5133 224.937 35.0863C225.461 34.6651 226.36 34.2849 227.395 34.2439C228.429 34.2088 229.352 34.5189 229.905 34.9049C230.469 35.2969 230.669 35.7063 230.54 35.9169Z" fill="#263238"/>
<path d="M194.877 50.1085C194.671 50.0324 186.588 48.2542 187.388 56.2915C188.187 64.323 196.934 61.7082 196.929 61.4742C196.917 61.2402 194.877 50.1085 194.877 50.1085Z" fill="#FFBE9D"/>
<path d="M193.349 58.836C193.313 58.8126 193.219 58.9472 192.99 59.0817C192.767 59.2104 192.379 59.3216 191.944 59.2046C191.062 58.9764 190.21 57.7012 190.027 56.2564C189.933 55.5252 190.021 54.8174 190.221 54.2149C190.409 53.6007 190.75 53.1561 191.174 53.0391C191.591 52.8987 191.92 53.1269 192.044 53.3433C192.173 53.5597 192.138 53.7235 192.185 53.7294C192.208 53.7469 192.344 53.5773 192.249 53.2497C192.202 53.0918 192.085 52.9163 191.879 52.7759C191.667 52.6355 191.379 52.5887 191.08 52.6472C190.462 52.7525 189.957 53.3784 189.733 54.0394C189.475 54.7062 189.363 55.5076 189.469 56.3266C189.681 57.9411 190.662 59.3742 191.867 59.5906C192.449 59.6842 192.908 59.4678 193.131 59.2514C193.355 59.0291 193.378 58.8477 193.349 58.836Z" fill="#EB996E"/>
<path d="M233.121 24.1886C232.569 27.3883 226.05 30.3131 220.647 30.161C215.668 30.0148 213.205 27.5579 209.584 25.8089C207.292 24.7034 207.292 24.7034 204.188 25.2064C201.672 25.6159 200.373 28.5641 198.962 30.6758C201.649 36.5078 200.561 43.2875 199.427 49.605C199.303 50.3011 199.145 51.0557 198.61 51.5237C197.704 52.3192 196.229 51.8454 195.341 51.0323C193.913 49.7337 193.26 47.7975 192.796 45.9315C191.732 41.673 191.321 37.2098 191.997 32.8694C192.673 28.529 194.477 24.3173 197.458 21.0766C201.178 17.0287 206.622 14.6947 212.13 14.4139C217.638 14.1332 223.169 15.8295 227.778 18.8362C229.912 20.2226 231.91 21.9482 233.121 24.1886Z" fill="#263238"/>
<path d="M222.405 59.6835C221.035 59.0459 219.659 58.4083 218.29 57.7766C218.054 57.6654 217.802 57.5543 217.543 57.5894C217.249 57.6303 217.02 57.8467 216.832 58.069C215.879 59.2214 215.638 60.9529 216.373 62.2515C217.114 63.5501 218.848 64.2345 220.235 63.6612C221.693 63.0587 222.405 61.374 222.516 59.8064L222.405 59.6835Z" fill="#EB996E"/>
<path d="M220.365 63.9532C220.377 63.9883 220.177 64.1053 219.766 64.193C219.36 64.269 218.725 64.3041 217.996 64.0643C217.273 63.8362 216.456 63.2746 215.951 62.3738C215.439 61.4963 215.251 60.2621 215.698 59.1448C215.909 58.5891 216.245 58.0977 216.65 57.7117C216.856 57.5186 217.073 57.3548 217.32 57.2086C217.45 57.1384 217.608 57.0682 217.796 57.0565C217.979 57.0448 218.143 57.0916 218.273 57.1501C218.543 57.2671 218.714 57.3958 218.913 57.5128C219.107 57.6298 219.29 57.7467 219.472 57.8579C219.825 58.0802 220.16 58.2849 220.471 58.4838C221.694 59.2559 222.423 59.7649 222.382 59.8409C222.341 59.9111 221.529 59.5309 220.254 58.8582C219.93 58.6827 219.584 58.4955 219.213 58.2966C219.025 58.1913 218.831 58.086 218.637 57.9807C218.443 57.8754 218.226 57.7409 218.055 57.6766C217.867 57.6122 217.785 57.6181 217.602 57.7175C217.42 57.8286 217.226 57.9807 217.062 58.1445C216.721 58.4779 216.444 58.8933 216.262 59.3671C215.886 60.3089 216.021 61.3325 216.439 62.1105C216.85 62.8944 217.514 63.4091 218.137 63.6665C218.766 63.9298 219.343 63.9649 219.731 63.9649C220.13 63.9473 220.348 63.9122 220.365 63.9532Z" fill="#263238"/>
<path d="M219.066 45.4928C219.019 45.4986 219.072 44.744 218.743 43.4571C218.419 42.1995 217.573 40.3451 215.668 38.9061C214.722 38.2042 213.534 37.6134 212.164 37.3736C210.806 37.1454 209.266 37.1864 207.808 37.7421C207.074 37.9995 206.362 38.3797 205.716 38.8652C205.057 39.339 204.458 39.9298 203.964 40.6142C202.947 41.9655 202.371 43.697 202.353 45.4811C202.371 47.2652 202.941 49.0025 203.964 50.3538C204.458 51.0382 205.057 51.629 205.716 52.1087C206.368 52.5942 207.074 52.9802 207.808 53.2318C209.266 53.7875 210.806 53.8284 212.164 53.6003C213.534 53.3605 214.722 52.7697 215.668 52.0677C217.573 50.6346 218.419 48.7802 218.743 47.5167C219.072 46.2357 219.019 45.4869 219.066 45.4928C219.072 45.4928 219.072 45.5396 219.072 45.6273C219.072 45.7385 219.066 45.8671 219.066 46.0251C219.066 46.2006 219.06 46.417 219.013 46.6744C218.978 46.9318 218.948 47.2243 218.854 47.5518C218.719 48.207 218.419 48.985 217.943 49.8156C217.461 50.6404 216.762 51.5061 215.797 52.2432C214.839 52.9744 213.622 53.5944 212.211 53.8518C210.812 54.0975 209.225 54.0624 207.714 53.5009C206.95 53.2435 206.215 52.8457 205.539 52.3485C204.857 51.8571 204.234 51.2488 203.723 50.541C202.665 49.1429 202.065 47.3471 202.047 45.4928C202.065 43.6385 202.665 41.8426 203.723 40.4446C204.234 39.7368 204.857 39.1284 205.539 38.6371C206.215 38.1399 206.95 37.7421 207.714 37.4847C209.231 36.9173 210.812 36.8822 212.211 37.1337C213.622 37.3911 214.839 38.017 215.797 38.7424C216.762 39.4794 217.461 40.3451 217.943 41.1699C218.419 42.0006 218.719 42.7786 218.854 43.4337C218.948 43.7555 218.978 44.0538 219.013 44.3112C219.054 44.5685 219.066 44.785 219.066 44.9605C219.066 45.1184 219.072 45.2529 219.072 45.3582C219.072 45.446 219.072 45.4928 219.066 45.4928Z" fill="#263238"/>
<path d="M239.194 44.7032C239.147 44.7091 239.2 43.972 238.876 42.7202C238.559 41.4918 237.736 39.6843 235.878 38.2921C234.961 37.6077 233.803 37.0286 232.469 36.8004C231.146 36.5781 229.647 36.6191 228.224 37.1631C227.507 37.4088 226.819 37.7832 226.185 38.257C225.544 38.7191 224.962 39.2982 224.48 39.9651C223.486 41.2812 222.928 42.9659 222.91 44.7091C222.928 46.4522 223.486 48.1369 224.474 49.4531C224.956 50.1199 225.538 50.6932 226.179 51.1612C226.814 51.635 227.501 52.0093 228.218 52.255C229.641 52.7932 231.134 52.84 232.463 52.6177C233.797 52.3837 234.955 51.8046 235.872 51.1261C237.73 49.728 238.553 47.9263 238.865 46.6979C239.2 45.4344 239.147 44.6974 239.194 44.7032C239.206 44.7032 239.206 44.8846 239.2 45.2238C239.2 45.3935 239.194 45.6099 239.153 45.8556C239.117 46.1071 239.088 46.3937 239 46.7096C238.712 47.9614 237.906 49.8274 236.019 51.284C235.085 51.9976 233.897 52.606 232.522 52.8517C231.158 53.0915 229.612 53.0564 228.136 52.5066C227.395 52.255 226.678 51.869 226.02 51.3776C225.356 50.8979 224.75 50.3071 224.25 49.6169C223.216 48.2539 222.634 46.5049 222.622 44.6974C222.64 42.8898 223.222 41.1408 224.256 39.7779C224.756 39.0876 225.362 38.491 226.026 38.0171C226.684 37.5316 227.401 37.1456 228.142 36.894C229.618 36.3442 231.164 36.3091 232.528 36.5489C233.903 36.8004 235.091 37.4088 236.025 38.1166C237.912 39.5731 238.718 41.4333 239.006 42.691C239.094 43.0068 239.129 43.2935 239.159 43.545C239.2 43.7907 239.211 44.0071 239.206 44.1768C239.206 44.5219 239.206 44.7032 239.194 44.7032Z" fill="#263238"/>
<path d="M222.769 42.8536C222.734 42.8887 222.54 42.725 222.187 42.5553C221.834 42.3857 221.305 42.2219 220.705 42.2336C220.112 42.2394 219.583 42.4266 219.236 42.608C218.883 42.7893 218.701 42.9589 218.666 42.9297C218.636 42.9063 218.771 42.6723 219.124 42.4266C219.471 42.1809 220.035 41.9411 220.7 41.9294C221.358 41.9177 221.934 42.1341 222.293 42.3681C222.645 42.6021 222.792 42.8302 222.769 42.8536Z" fill="#263238"/>
<path d="M202.713 44.2988C202.766 44.369 201.114 45.6793 199.027 47.2236C196.94 48.7737 195.212 49.9729 195.159 49.9086C195.106 49.8384 196.758 48.5281 198.845 46.9838C200.932 45.4336 202.666 44.2286 202.713 44.2988Z" fill="#263238"/>
<g opacity="0.3">
<path opacity="0.3" d="M195.758 82.3677C194.941 90.3056 197.974 98.688 204.37 103.496C204.87 103.877 205.505 104.245 206.093 104.035C206.504 103.888 206.769 103.496 206.986 103.116C208.809 99.9749 209.42 96.5061 208.897 92.9145C207.886 95.5702 207.016 98.1732 205.993 100.952C200.414 97.5883 196.94 90.4284 195.758 82.3677Z" fill="black"/>
</g>
<path opacity="0.3" d="M217.42 100.42L222.117 98.7117L222.893 106.614C222.893 106.614 227.96 97.4247 230.059 93.2306C232.158 89.0364 231.076 81.6367 231.076 81.6367C231.076 81.6367 231.828 88.083 226.749 96.3016L222.916 102.502V96.0091L217.42 100.42Z" fill="black"/>
<g opacity="0.3">
<path opacity="0.3" d="M162.798 140.584C160.705 139.601 158.295 139.466 155.997 139.735C153.569 140.016 151.13 140.759 149.225 142.286C147.321 143.813 146.033 146.223 146.268 148.644L146.504 148.679C148.144 144.269 151.4 141.057 155.603 140.666C159.806 140.279 163.903 142.14 166.789 145.205C166.507 142.912 164.897 141.566 162.798 140.584Z" fill="black"/>
</g>
<g opacity="0.3">
<path opacity="0.3" d="M281.534 145.093C279.959 143.402 277.748 142.379 275.468 141.981C271.464 141.285 267.167 142.525 264.152 145.239L265.045 144.514C267.32 143.186 269.942 142.402 272.581 142.478C275.215 142.554 277.854 143.525 279.765 145.333C281.522 146.994 282.574 149.246 283.58 151.44C283.979 149.176 283.109 146.783 281.534 145.093Z" fill="black"/>
</g>
<path d="M251.267 108.393C251.249 108.387 251.325 108.159 251.478 107.755C251.661 107.293 251.884 106.726 252.148 106.053C252.719 104.62 253.495 102.637 254.324 100.438C255.147 98.2323 255.858 96.2259 256.369 94.7694C256.61 94.0908 256.816 93.5176 256.981 93.0496C257.128 92.646 257.222 92.4237 257.239 92.4296C257.257 92.4354 257.204 92.6694 257.092 93.0847C256.981 93.5 256.804 94.1025 256.575 94.8396C256.117 96.3137 255.435 98.3376 254.612 100.543C253.789 102.748 252.971 104.72 252.354 106.135C252.043 106.843 251.784 107.41 251.596 107.802C251.402 108.188 251.284 108.405 251.267 108.393Z" fill="#263238"/>
<path d="M177.16 108.966C177.077 108.983 176.437 106.199 175.731 102.748C175.026 99.2964 174.52 96.4886 174.603 96.471C174.685 96.4535 175.326 99.2379 176.031 102.689C176.736 106.14 177.242 108.948 177.16 108.966Z" fill="#263238"/>
<path d="M176.048 143.766C176.237 143.86 173.897 125.539 173.897 125.539C173.897 125.539 175.372 111.634 176.201 110.991L176.225 106.083C176.225 106.083 178.511 104.703 179.123 106.931C179.123 106.931 181.151 105.182 181.503 109.347C181.856 113.518 181.933 117.776 181.933 117.776L186.441 128.996L187.182 129.37C187.182 129.37 188.152 120.578 188.716 119.286C189.28 117.993 189.668 114.846 191.802 115.32C193.942 115.793 194.118 117.554 193.736 120.42C193.354 123.287 192.872 126.247 193.054 128.101C193.231 129.955 194.077 134.032 193.818 137.267C193.56 140.508 191.779 143.924 189.904 146.322C188.034 148.721 184.46 153.681 182.515 155.179C181.833 155.705 176.048 143.766 176.048 143.766Z" fill="#FFBE9D"/>
<path d="M178.329 128.856C178.305 128.856 178.311 128.575 178.341 128.072C178.382 127.511 178.429 126.797 178.488 125.943C178.623 124.147 178.834 121.667 179.087 118.929C179.216 117.566 179.34 116.262 179.452 115.074C179.51 114.484 179.546 113.928 179.469 113.419C179.399 112.91 179.199 112.471 178.905 112.156C178.311 111.512 177.541 111.348 177.065 111.354C176.565 111.348 176.307 111.483 176.295 111.454C176.289 111.442 176.354 111.413 176.477 111.36C176.606 111.313 176.8 111.255 177.059 111.237C177.565 111.202 178.388 111.331 179.064 112.015C179.399 112.354 179.634 112.846 179.716 113.384C179.81 113.928 179.775 114.507 179.728 115.104C179.622 116.297 179.505 117.596 179.387 118.964C179.134 121.702 178.887 124.176 178.699 125.966C178.599 126.815 178.517 127.528 178.452 128.084C178.393 128.581 178.346 128.856 178.329 128.856Z" fill="#EB996E"/>
<path d="M180.751 121.362C180.798 121.397 180.293 121.836 179.952 122.807C179.587 123.76 179.458 125.199 179.199 126.761C178.958 128.329 178.717 129.745 178.535 130.762C178.347 131.786 178.212 132.412 178.171 132.406C178.129 132.4 178.188 131.757 178.323 130.727C178.453 129.698 178.659 128.276 178.9 126.709C179.152 125.153 179.317 123.708 179.752 122.719C179.958 122.228 180.205 121.871 180.405 121.649C180.598 121.438 180.74 121.35 180.751 121.362Z" fill="#EB996E"/>
<path d="M179.094 106.692C179.117 106.686 179.17 106.89 179.252 107.271C179.335 107.645 179.434 108.189 179.546 108.868C179.77 110.219 180.016 112.097 180.175 114.185C180.328 116.273 180.363 118.168 180.34 119.537C180.328 120.222 180.31 120.777 180.281 121.158C180.257 121.538 180.234 121.748 180.21 121.748C180.163 121.748 180.158 120.9 180.122 119.537C180.087 118.168 180.022 116.285 179.869 114.208C179.717 112.132 179.505 110.254 179.335 108.897C179.164 107.534 179.052 106.697 179.094 106.692Z" fill="#EB996E"/>
<path d="M192.102 123.866C192.149 123.936 191.444 124.258 190.585 123.995C189.721 123.737 189.321 123.076 189.398 123.047C189.468 122.988 189.915 123.486 190.674 123.708C191.426 123.942 192.079 123.778 192.102 123.866Z" fill="#EB996E"/>
<path d="M176.301 141.485L164.386 146.469H157.285C157.285 146.469 150.266 148.651 149.185 155.197C148.103 161.748 147.95 165.118 151.036 165.925C154.122 166.732 162.84 166.826 167.16 165.398C171.481 163.971 182.803 154.881 182.803 154.881L183.896 148.306L176.301 141.485Z" fill="#FFBE9D"/>
<path d="M179.093 148.727C179.076 148.739 178.958 148.633 178.753 148.417C178.541 148.212 178.282 147.873 177.977 147.44C177.389 146.563 176.742 145.235 176.313 143.69C175.866 142.146 175.678 140.701 175.578 139.66C175.49 138.619 175.49 137.97 175.531 137.964C175.578 137.958 175.649 138.601 175.79 139.631C175.943 140.66 176.166 142.082 176.601 143.603C177.024 145.129 177.624 146.434 178.153 147.323C178.7 148.206 179.135 148.686 179.093 148.727Z" fill="#EB996E"/>
<path d="M184.284 150.803C184.219 150.78 184.754 149.879 184.96 148.258C185.06 147.457 185.048 146.48 184.819 145.433C184.59 144.386 184.09 143.31 183.361 142.304C182.638 141.292 181.821 140.414 181.139 139.566C180.445 138.718 179.893 137.893 179.528 137.144C179.164 136.395 178.993 135.734 178.929 135.272C178.87 134.81 178.893 134.553 178.911 134.553C178.97 134.541 178.952 135.6 179.722 137.045C180.098 137.764 180.663 138.56 181.356 139.385C182.05 140.215 182.873 141.093 183.614 142.122C184.36 143.146 184.884 144.281 185.101 145.363C185.325 146.445 185.307 147.457 185.178 148.276C185.048 149.101 184.819 149.738 184.631 150.16C184.543 150.37 184.455 150.528 184.39 150.633C184.325 150.756 184.29 150.809 184.284 150.803Z" fill="#EB996E"/>
<path d="M165.915 122.256C165.838 122.297 164.539 119.94 163.011 116.997C161.482 114.055 160.306 111.639 160.377 111.598C160.453 111.557 161.753 113.915 163.281 116.857C164.81 119.799 165.991 122.215 165.915 122.256Z" fill="white"/>
<path d="M185.183 100.912C185.106 100.877 185.912 98.9171 186.976 96.5305C188.046 94.1438 188.974 92.2369 189.051 92.272C189.127 92.3071 188.322 94.2667 187.258 96.6533C186.188 99.0399 185.259 100.947 185.183 100.912Z" fill="white"/>
<path d="M204.053 114.763C203.989 114.815 202.778 113.47 201.355 111.756C199.927 110.042 198.827 108.609 198.892 108.556C198.957 108.504 200.168 109.849 201.59 111.563C203.013 113.277 204.118 114.71 204.053 114.763Z" fill="white"/>
<path d="M199.708 133.816C199.638 133.769 200.549 132.4 201.742 130.762C202.936 129.124 203.959 127.837 204.023 127.89C204.094 127.937 203.183 129.306 201.989 130.943C200.802 132.581 199.779 133.868 199.708 133.816Z" fill="white"/>
<path d="M193.866 160.729C193.83 160.747 193.56 160.302 193.178 159.554C192.79 158.805 192.29 157.758 191.79 156.582C191.285 155.4 190.879 154.318 190.603 153.523C190.333 152.727 190.191 152.224 190.233 152.212C190.274 152.201 190.485 152.674 190.809 153.447C191.179 154.324 191.602 155.342 192.073 156.465C192.555 157.582 192.996 158.588 193.378 159.466C193.707 160.226 193.907 160.706 193.866 160.729Z" fill="white"/>
<path d="M210.467 149.287C210.449 149.369 208.85 149.129 206.898 148.755C204.941 148.381 203.371 148.006 203.389 147.924C203.406 147.843 205.005 148.082 206.957 148.457C208.915 148.831 210.484 149.206 210.467 149.287Z" fill="white"/>
<path d="M223.345 124.14C223.281 124.081 224.809 122.35 226.749 120.261C228.689 118.179 230.317 116.535 230.376 116.594C230.441 116.652 228.912 118.384 226.972 120.472C225.027 122.555 223.404 124.198 223.345 124.14Z" fill="white"/>
<path d="M236.295 157.676C236.231 157.728 234.332 155.541 232.051 152.785C229.77 150.03 227.977 147.755 228.042 147.702C228.106 147.649 230.005 149.837 232.286 152.592C234.567 155.347 236.36 157.623 236.295 157.676Z" fill="white"/>
<path d="M155.892 143.385C155.933 143.467 154.199 144.345 152.306 145.789C150.407 147.223 149.097 148.662 149.026 148.597C148.997 148.574 149.285 148.182 149.825 147.603C150.36 147.03 151.16 146.281 152.118 145.55C153.076 144.824 154.017 144.257 154.716 143.888C155.416 143.526 155.875 143.35 155.892 143.385Z" fill="white"/>
<path d="M160.736 130.458C160.807 130.505 160.189 131.552 159.355 132.798C158.52 134.044 157.791 135.015 157.72 134.968C157.65 134.921 158.267 133.874 159.102 132.628C159.931 131.382 160.666 130.411 160.736 130.458Z" fill="white"/>
<path d="M171.646 143.151C171.581 143.192 170.964 142.168 170.646 140.746C170.317 139.331 170.429 138.143 170.505 138.149C170.599 138.149 170.629 139.302 170.946 140.676C171.252 142.057 171.728 143.11 171.646 143.151Z" fill="white"/>
<path d="M173.263 102.836C173.275 102.918 172.264 103.134 171 103.31C169.736 103.491 168.701 103.567 168.69 103.485C168.678 103.403 169.689 103.187 170.953 103.011C172.217 102.83 173.251 102.754 173.263 102.836Z" fill="white"/>
<path d="M181.457 88.3706C181.498 88.4466 180.61 89.014 179.476 89.6399C178.341 90.2658 177.383 90.7162 177.342 90.6402C177.301 90.5642 178.188 89.9967 179.323 89.3708C180.463 88.7449 181.416 88.3004 181.457 88.3706Z" fill="white"/>
<path d="M204.506 94.482C204.441 94.5347 203.424 93.3179 202.237 91.7678C201.049 90.2177 200.144 88.9249 200.214 88.8723C200.279 88.8196 201.296 90.0363 202.483 91.5865C203.665 93.1308 204.576 94.4294 204.506 94.482Z" fill="white"/>
<path d="M233.762 109.024C233.703 109.077 232.633 107.983 231.645 106.392C230.646 104.801 230.135 103.368 230.205 103.339C230.287 103.303 230.922 104.666 231.904 106.234C232.886 107.802 233.832 108.966 233.762 109.024Z" fill="white"/>
<path d="M244.93 112.687C245.007 112.722 244.466 114.079 243.719 115.711C242.973 117.349 242.308 118.647 242.226 118.612C242.15 118.577 242.69 117.22 243.437 115.588C244.184 113.95 244.854 112.652 244.93 112.687Z" fill="white"/>
<path d="M246.494 97.5185C246.43 97.5712 245.101 96.0912 243.526 94.2076C241.95 92.3241 240.727 90.7505 240.792 90.6979C240.857 90.6452 242.185 92.1252 243.761 94.0088C245.33 95.8982 246.559 97.4659 246.494 97.5185Z" fill="white"/>
<path d="M229.435 85.1993C229.353 85.2051 229.229 83.9357 229.17 82.3622C229.106 80.7945 229.129 79.5193 229.212 79.5134C229.294 79.5076 229.417 80.777 229.476 82.3505C229.541 83.924 229.523 85.1993 229.435 85.1993Z" fill="white"/>
<path d="M243.344 84.4336C243.356 84.5155 241.727 84.8021 239.717 85.0712C237.7 85.3403 236.06 85.4865 236.048 85.4046C236.037 85.3227 237.659 85.0361 239.676 84.767C241.686 84.4979 243.332 84.3517 243.344 84.4336Z" fill="white"/>
<path d="M265.246 100.443C265.169 100.479 264.193 98.6242 263.059 96.3019C261.93 93.9796 261.072 92.061 261.148 92.0259C261.225 91.9908 262.201 93.8451 263.335 96.1674C264.464 98.4897 265.322 100.408 265.246 100.443Z" fill="white"/>
<path d="M261.554 114.277C261.472 114.26 261.701 112.768 262.066 110.949C262.43 109.124 262.795 107.662 262.877 107.679C262.959 107.697 262.73 109.188 262.366 111.008C262.001 112.827 261.643 114.295 261.554 114.277Z" fill="white"/>
<path d="M271.718 125.181C271.636 125.211 270.86 123.198 269.972 120.689C269.09 118.179 268.438 116.12 268.52 116.091C268.602 116.062 269.378 118.074 270.266 120.584C271.148 123.099 271.795 125.152 271.718 125.181Z" fill="white"/>
<path d="M270.301 131.563C270.283 131.639 268.878 131.346 267.332 130.504C265.78 129.673 264.763 128.661 264.822 128.609C264.881 128.538 265.963 129.428 267.479 130.241C268.984 131.054 270.33 131.475 270.301 131.563Z" fill="white"/>
<path d="M283.315 146.105C283.239 146.14 282.769 145.251 282.263 144.122C281.758 142.993 281.411 142.051 281.487 142.016C281.564 141.981 282.034 142.87 282.539 143.999C283.045 145.128 283.392 146.07 283.315 146.105Z" fill="white"/>
<path d="M206.451 166.391C206.368 166.403 206.163 165.239 205.992 163.8C205.822 162.361 205.757 161.185 205.839 161.174C205.922 161.162 206.127 162.326 206.298 163.765C206.468 165.204 206.533 166.38 206.451 166.391Z" fill="white"/>
<path d="M246.382 165.385C246.3 165.368 246.47 164.233 246.764 162.853C247.058 161.472 247.364 160.366 247.446 160.384C247.528 160.402 247.358 161.536 247.064 162.917C246.77 164.297 246.464 165.403 246.382 165.385Z" fill="white"/>
<path d="M254.036 49.3935L259.197 40.3384C256.911 36.6473 255.594 32.3069 255.594 27.6565C255.594 14.2785 266.492 3.43335 279.936 3.43335C293.379 3.43335 304.278 14.2785 304.278 27.6565C304.278 41.0345 293.379 51.8796 279.936 51.8796C274.322 51.8796 269.155 49.9843 265.04 46.808L265.046 46.8197L254.036 49.3935Z" fill="#FAFAFA"/>
<path d="M254.036 49.3935C254.559 49.2765 258.045 48.481 265.064 46.884L265.175 46.8606L265.105 46.767L265.099 46.7553L264.993 46.8606C266.381 47.9311 268.044 48.984 270.002 49.8673C271.959 50.733 274.205 51.435 276.679 51.7626C277.914 51.9205 279.207 52.02 280.535 51.9556C281.2 51.9205 281.876 51.903 282.558 51.8445C283.234 51.745 283.921 51.6397 284.615 51.5344C287.372 50.9904 290.188 49.9492 292.821 48.3289C295.449 46.7085 297.882 44.5149 299.834 41.8183C301.78 39.1216 303.255 35.9278 303.949 32.459C304.631 28.9902 304.578 25.2757 303.661 21.6782C302.738 18.0924 301.015 14.5943 298.441 11.7163L297.447 10.6283C297.118 10.2598 296.73 9.96145 296.377 9.62218C296.007 9.3063 295.672 8.94363 295.272 8.66285L294.103 7.79126C293.726 7.48708 293.309 7.2414 292.892 6.99572C292.48 6.74418 292.069 6.4985 291.657 6.24697C291.222 6.03639 290.793 5.83165 290.364 5.62107C289.929 5.42218 289.512 5.1882 289.059 5.04196C285.52 3.64391 281.752 3.11159 278.143 3.37482C274.534 3.63221 271.083 4.66173 268.126 6.32301C265.158 7.96675 262.654 10.1662 260.72 12.6172C258.78 15.074 257.416 17.7765 256.57 20.4732C255.729 23.1815 255.5 25.8665 255.512 28.3525C255.582 30.8445 256.041 33.1434 256.705 35.1556C257.369 37.1737 258.245 38.911 259.144 40.3676V40.2974C255.882 46.1119 254.289 48.9489 254.036 49.3935C254.295 48.9489 255.923 46.1353 259.262 40.3734L259.285 40.3383L259.262 40.3032C258.374 38.8467 257.516 37.1152 256.864 35.1088C256.217 33.1024 255.77 30.8269 255.711 28.3525C255.711 25.884 255.947 23.2283 256.787 20.5492C257.634 17.8818 258.992 15.2085 260.914 12.781C262.83 10.3592 265.311 8.18903 268.25 6.5687C271.177 4.93082 274.593 3.91883 278.155 3.6673C281.717 3.41577 285.444 3.94223 288.936 5.32274C289.382 5.46313 289.794 5.69711 290.223 5.896C290.646 6.10073 291.075 6.30547 291.498 6.51605C291.904 6.76173 292.31 7.00742 292.721 7.2531C293.133 7.49878 293.544 7.73861 293.914 8.04279L295.067 8.90268C295.46 9.17761 295.79 9.53443 296.154 9.85031C296.501 10.1837 296.889 10.4821 297.212 10.8447L298.194 11.9211C300.739 14.764 302.438 18.2211 303.349 21.7601C304.254 25.3108 304.313 28.9843 303.643 32.4122C302.961 35.84 301.509 39.0046 299.587 41.6662C297.665 44.3395 295.261 46.5155 292.662 48.1183C290.064 49.7328 287.278 50.7681 284.55 51.3122C283.863 51.4174 283.181 51.5227 282.516 51.6222C281.84 51.6807 281.17 51.6982 280.518 51.7392C279.201 51.8094 277.92 51.7099 276.697 51.5578C274.24 51.242 272.012 50.5517 270.066 49.7035C268.121 48.8378 266.463 47.8024 265.076 46.7495L264.623 46.4044L264.97 46.8548L264.976 46.8665L265.017 46.7495C258.033 48.4283 254.559 49.2707 254.036 49.3935Z" fill="#263238"/>
<path d="M286.508 26.6442C286.508 27.9487 287.572 29.0133 288.889 29.0133C290.205 29.0133 291.27 27.9545 291.27 26.6442C291.27 25.3398 290.205 24.2751 288.889 24.2751C287.572 24.2751 286.508 25.3398 286.508 26.6442Z" fill="#263238"/>
<path d="M276.991 26.6442C276.991 27.9487 278.055 29.0133 279.372 29.0133C280.688 29.0133 281.752 27.9545 281.752 26.6442C281.752 25.3398 280.688 24.2751 279.372 24.2751C278.055 24.2751 276.991 25.3398 276.991 26.6442Z" fill="#263238"/>
<path d="M267.497 25.4635C266.839 26.5983 267.233 28.0432 268.368 28.6983C269.508 29.3535 270.96 28.9615 271.618 27.8326C272.277 26.6978 271.883 25.2529 270.748 24.5978C269.608 23.9426 268.15 24.3287 267.497 25.4635Z" fill="#263238"/>
</g>
<defs>
<clipPath id="clip0_446_10671">
<rect width="425" height="210" fill="white"/>
</clipPath>
</defs>
</svg>
