<svg width="22" height="19" viewBox="0 0 22 19" fill="none" xmlns="http://www.w3.org/2000/svg">
<g clip-path="url(#clip0_443_2451)">
<path d="M20.9205 17.3727C20.9677 17.3731 21.0145 17.364 21.058 17.3458C21.1015 17.3276 21.1408 17.3008 21.1733 17.2669C21.2059 17.2331 21.2311 17.193 21.2474 17.1491C21.2637 17.1053 21.2706 17.0586 21.2679 17.0119C21.2679 16.756 21.112 16.6338 20.7922 16.6338H20.2754V17.9734H20.4698V17.3894H20.7086L20.7141 17.3965L21.0848 17.9734H21.2926L20.8938 17.3764L20.9205 17.3727ZM20.6957 17.2385H20.4703V16.7856H20.756C20.9036 16.7856 21.0718 16.8095 21.0718 17.0008C21.0718 17.2208 20.9016 17.2385 20.6946 17.2385" fill="#0A033C"/>
<path d="M15.8502 15.694H13.0939V11.42C13.0939 10.4008 13.0756 9.08882 11.6604 9.08882C10.2248 9.08882 10.0051 10.1993 10.0051 11.3458V15.6937H7.24881V6.90463H9.89488V8.10575H9.93192C10.1967 7.65744 10.5794 7.28864 11.0391 7.03863C11.4989 6.78861 12.0185 6.66675 12.5427 6.68602C15.3363 6.68602 15.8514 8.50546 15.8514 10.8724L15.8502 15.694ZM4.13878 5.70323C3.82242 5.70329 3.51314 5.61046 3.25007 5.43647C2.987 5.26249 2.78195 5.01518 2.66084 4.7258C2.53972 4.43643 2.50798 4.11799 2.56964 3.81076C2.6313 3.50353 2.7836 3.2213 3.00726 2.99976C3.23091 2.77823 3.5159 2.62734 3.82616 2.56617C4.13643 2.50501 4.45804 2.53632 4.75033 2.65614C5.04263 2.77596 5.29248 2.97891 5.46828 3.23933C5.64409 3.49974 5.73796 3.80593 5.73802 4.11917C5.73805 4.32716 5.69671 4.53311 5.61636 4.72528C5.53601 4.91744 5.41824 5.09206 5.26973 5.23915C5.12123 5.38625 4.94491 5.50294 4.75086 5.58256C4.55681 5.66219 4.34883 5.70319 4.13878 5.70323ZM5.51693 15.694H2.75775V6.90463H5.51693V15.694ZM17.2244 0.0012549H1.3727C1.01292 -0.00276533 0.666217 0.134812 0.408822 0.383756C0.151426 0.632699 0.00439102 0.972641 0 1.32888V17.0896C0.00424073 17.446 0.15119 17.7861 0.408576 18.0353C0.665963 18.2845 1.01274 18.4224 1.3727 18.4186H17.2244C17.5851 18.4231 17.9328 18.2856 18.1912 18.0364C18.4496 17.7872 18.5975 17.4467 18.6025 17.0896V1.32775C18.5974 0.970797 18.4494 0.630469 18.191 0.381531C17.9325 0.132594 17.5849 -0.00459043 17.2244 0.000117282" fill="#0A033C"/>
<path d="M20.7197 16.0374C20.3843 16.0405 20.0639 16.1751 19.8285 16.4116C19.593 16.6481 19.4618 16.9673 19.4634 17.2993C19.465 17.6314 19.5994 17.9493 19.8371 18.1835C20.0748 18.4178 20.3965 18.5493 20.7319 18.5493C21.0672 18.5493 21.3889 18.4178 21.6267 18.1835C21.8644 17.9493 21.9987 17.6314 22.0003 17.2993C22.0019 16.9673 21.8707 16.6481 21.6353 16.4116C21.3999 16.1751 21.0794 16.0405 20.7441 16.0374H20.7197ZM20.7197 18.4055C20.4997 18.4091 20.2836 18.348 20.0987 18.2301C19.9138 18.1121 19.7683 17.9425 19.6808 17.7426C19.5932 17.5428 19.5675 17.3218 19.6068 17.1074C19.6461 16.8931 19.7487 16.6952 19.9017 16.5386C20.0546 16.382 20.251 16.2739 20.466 16.2278C20.681 16.1818 20.905 16.1999 21.1097 16.2799C21.3143 16.3599 21.4903 16.4982 21.6156 16.6773C21.7408 16.8563 21.8096 17.0682 21.8133 17.2859C21.8133 17.2922 21.8133 17.2982 21.8133 17.3044C21.8194 17.5901 21.7107 17.8666 21.5111 18.0729C21.3114 18.2793 21.0372 18.3987 20.7487 18.4049H20.7199" fill="#0A033C"/>
</g>
<defs>
<clipPath id="clip0_443_2451">
<rect width="22" height="18.5714" fill="white"/>
</clipPath>
</defs>
</svg>
