<svg width="22" height="18" viewBox="0 0 22 18" fill="none" xmlns="http://www.w3.org/2000/svg">
<g clip-path="url(#clip0_443_2455)">
<path d="M6.94644 17.5274C15.1935 17.5274 19.7035 10.8123 19.7035 4.98925C19.7035 4.79852 19.6996 4.60865 19.6908 4.41964C20.5663 3.79762 21.3272 3.02139 21.9274 2.13775C21.124 2.48871 20.2595 2.72497 19.3526 2.8315C20.2782 2.28595 20.9889 1.42294 21.3242 0.394142C20.4579 0.898891 19.4986 1.26575 18.4771 1.46381C17.6589 0.607268 16.4941 0.0715332 15.2043 0.0715332C12.7283 0.0715332 10.7204 2.04502 10.7204 4.47762C10.7204 4.82343 10.7598 5.15978 10.8367 5.48242C7.11025 5.29813 3.80592 3.54461 1.59448 0.878268C1.20943 1.5295 0.987394 2.28597 0.987394 3.09314C0.987394 4.62199 1.77895 5.97167 2.98265 6.76125C2.24704 6.73891 1.55602 6.54045 0.952048 6.2101C0.951388 6.22859 0.951385 6.24662 0.951385 6.26638C0.951385 8.40052 2.49689 10.1824 4.54846 10.5861C4.1717 10.6871 3.77531 10.7412 3.36618 10.7412C3.07772 10.7412 2.79667 10.7133 2.5235 10.6617C3.09432 12.4127 4.74954 13.6868 6.71194 13.7224C5.17736 14.9046 3.24423 15.6087 1.14323 15.6087C0.781767 15.6087 0.424682 15.5885 0.0737305 15.5477C2.05806 16.7977 4.41426 17.5271 6.94668 17.5271" fill="#0A033C"/>
</g>
<defs>
<clipPath id="clip0_443_2455">
<rect width="22" height="17.6" fill="white"/>
</clipPath>
</defs>
</svg>
