<svg width="30" height="30" viewBox="0 0 30 30" fill="none" xmlns="http://www.w3.org/2000/svg">
<path d="M16.3385 8.23589C15.5944 8.97838 14.3884 8.97838 13.6443 8.23589C12.9005 7.49339 12.9005 6.28947 13.6443 5.54698C14.3884 4.80449 15.5944 4.80449 16.3385 5.54698C17.0824 6.28947 17.0824 7.49339 16.3385 8.23589Z" fill="#D97356"/>
<path d="M18.9409 11.1168C18.7088 11.1168 18.4767 11.0282 18.3 10.8508C17.9467 10.497 17.9473 9.92363 18.3012 9.57046C19.0183 8.85475 19.4131 7.90329 19.4131 6.8914C19.4131 5.87951 19.0183 4.92805 18.3012 4.21234C17.9473 3.85894 17.9467 3.28582 18.3 2.93174C18.6532 2.57789 19.2266 2.57721 19.5804 2.9306C20.6404 3.98849 21.224 5.39497 21.224 6.8914C21.224 8.3876 20.6404 9.79431 19.5804 10.8522C19.4037 11.0287 19.1723 11.1168 18.9409 11.1168Z" fill="#D97356"/>
<path d="M20.989 13.7826C20.7569 13.7826 20.5248 13.694 20.3481 13.5169C19.9947 13.1628 19.9954 12.5897 20.3493 12.2363C21.7798 10.8085 22.5678 8.91038 22.5678 6.89142C22.5678 4.87245 21.7798 2.97433 20.3493 1.54657C19.9954 1.19317 19.9947 0.620053 20.3481 0.265973C20.7015 -0.0878787 21.2747 -0.0885654 21.6285 0.264828C23.4019 2.03477 24.3788 4.38813 24.3785 6.89142C24.3785 9.3947 23.4019 11.7483 21.6285 13.5182C21.4518 13.6945 21.2204 13.7826 20.989 13.7826Z" fill="#D97356"/>
<path d="M11.0375 11.1163C10.8061 11.1163 10.5747 11.0282 10.3978 10.8517C9.3378 9.79384 8.75415 8.38714 8.75415 6.89094C8.75415 5.39451 9.3378 3.98803 10.3978 2.93014C10.7516 2.57674 11.325 2.5772 11.6781 2.93128C12.0315 3.28513 12.0308 3.85848 11.677 4.21187C10.9599 4.92759 10.5651 5.87905 10.5651 6.89094C10.5651 7.90282 10.9599 8.85428 11.677 9.57C12.0308 9.92316 12.0315 10.4965 11.6781 10.8504C11.5014 11.0275 11.2693 11.1163 11.0375 11.1163Z" fill="#D97356"/>
<path d="M8.98936 13.7835C8.75773 13.7835 8.52633 13.6954 8.34963 13.5189C6.57625 11.749 5.59961 9.3956 5.59961 6.89232C5.59961 4.38881 6.57625 2.03545 8.34963 0.265507C8.70348 -0.0876575 9.27683 -0.0871997 9.63 0.26688C9.98339 0.620732 9.9827 1.19385 9.62885 1.54725C8.19834 2.97501 7.4103 4.87313 7.4103 6.89209C7.4103 8.91106 8.19834 10.8094 9.62885 12.2372C9.9827 12.5906 9.98339 13.1637 9.63 13.5178C9.4533 13.6949 9.22121 13.7835 8.98936 13.7835Z" fill="#D97356"/>
<path d="M26.9226 15.3479H3.05557C1.88576 15.3479 0.9375 16.2962 0.9375 17.4657V27.8819C0.9375 29.0517 1.88576 30 3.05557 30H26.9224C28.0922 30 29.0405 29.0517 29.0405 27.8819V17.4657C29.0405 16.2962 28.0922 15.3479 26.9226 15.3479ZM7.90259 27.2825H4.56664C4.06677 27.2825 3.66142 26.8771 3.66142 26.377V18.9709C3.66142 18.471 4.06677 18.0654 4.56664 18.0654C5.06675 18.0654 5.4721 18.4708 5.4721 18.9709V25.4715H7.90259C8.40269 25.4715 8.80804 25.8769 8.80804 26.377C8.80804 26.8771 8.40269 27.2825 7.90259 27.2825ZM11.6132 26.377C11.6132 26.8771 11.2079 27.2825 10.7078 27.2825C10.2077 27.2825 9.8023 26.8771 9.8023 26.377V18.9709C9.8023 18.471 10.2077 18.0654 10.7078 18.0654C11.2079 18.0654 11.6132 18.4708 11.6132 18.9709V26.377ZM19.2313 19.2327L16.9954 26.6386C16.9951 26.6393 16.9949 26.64 16.9947 26.6407C16.7518 27.4695 15.5138 27.4491 15.2625 26.6407C15.2623 26.64 15.262 26.6393 15.2618 26.6386L13.0259 19.2327C12.8814 18.7539 13.1522 18.2487 13.631 18.1041C14.1094 17.9597 14.615 18.2304 14.7594 18.7093L16.1286 23.2441L17.4978 18.7093C17.6424 18.2304 18.1475 17.9594 18.6264 18.1041C19.105 18.2487 19.3759 18.7539 19.2313 19.2327ZM24.8016 21.3022C25.3017 21.3022 25.707 21.7076 25.707 22.2077C25.707 22.7076 25.3017 23.1132 24.8016 23.1132H22.2322V25.4715H25.2893C25.7894 25.4715 26.1948 25.8769 26.1948 26.377C26.1948 26.8771 25.7894 27.2825 25.2893 27.2825H21.3267C20.8266 27.2825 20.4213 26.8771 20.4213 26.377V18.9709C20.4213 18.471 20.8266 18.0654 21.3267 18.0654H25.4113C25.9112 18.0654 26.3168 18.4708 26.3168 18.9709C26.3168 19.471 25.9112 19.8763 25.4113 19.8763H22.2319V21.3022H24.8016Z" fill="#D97356"/>
</svg>
