<svg width="485" height="210" viewBox="0 0 485 210" fill="none" xmlns="http://www.w3.org/2000/svg">
<g clip-path="url(#clip0_445_8660)">
<path d="M396.027 209.16C396.027 209.16 443.661 217.919 458.824 184.782C478.497 141.79 438.08 109.193 407.083 115.266C339.537 128.5 355.803 -17.4965 247.403 12.3C216.922 20.6777 134.567 -29.0933 111.598 50.7116C106.136 69.6884 86.7859 71.778 58.6947 83.8201C3.71784 107.385 28.8547 209.558 68.1383 209.959C107.422 210.36 396.027 209.16 396.027 209.16Z" fill="#EDDCFF"/>
<path d="M295.239 194.302C285.418 186.932 275.99 196.558 262.24 190.264C248.489 183.971 276.774 152.896 265.382 143.456C253.99 134.015 235.134 154.076 235.134 154.076C235.134 154.076 268.133 112.774 255.562 107.622C242.991 102.47 163.482 89.3003 163.482 89.3003L149.117 172.274C146.179 168.468 139.953 163.561 134.561 169.753C127.389 177.991 151.436 195.733 147.64 199.323C143.843 202.914 134.772 187.706 127.098 193.654C119.424 199.602 129.266 209.806 129.266 209.806L150.803 210.106C150.803 210.106 150.806 209.838 150.813 209.352C168.7 209.352 302.712 209.352 302.712 209.352C302.712 209.352 305.061 201.673 295.239 194.302Z" fill="#A8D29F"/>
<path d="M192.51 84.7738L182.619 202.535C182.619 202.535 181.582 209.674 186.886 209.686C195.605 209.707 230.283 209.686 230.283 209.686C230.283 209.686 223.721 208.2 223.801 204.856C223.895 200.916 235.362 83.6597 235.362 83.6597L192.51 84.7738Z" fill="#E04E3B"/>
<path d="M233.096 207.549C231.381 207.555 198.258 207.659 189.768 207.549C186.068 207.503 185.418 204.255 185.387 202.152C185.372 201.144 185.5 200.399 185.5 200.399L185.757 197.339L186.413 189.538L186.992 182.646L187.736 173.79L188.363 166.314L195.391 82.6367L238.243 81.5239C238.243 81.5239 233.414 130.596 229.996 166.315C229.615 170.295 229.252 174.112 228.917 177.673C228.807 178.811 228.704 179.923 228.602 181.005C228.285 184.385 227.995 187.487 227.745 190.228C227.612 191.672 227.49 193.014 227.379 194.243C226.942 199.06 226.687 202.136 226.685 202.721C226.683 203.062 226.712 203.378 226.768 203.674C227.47 207.427 232.453 207.549 233.096 207.549Z" fill="#FF6652"/>
<path d="M294.173 20.6934H88.4417L112.535 117.596L115.834 130.866L127.056 176.002H335.534L294.173 20.6934Z" fill="#FF6652"/>
<path d="M88.4417 20.6934L85.1035 21.8075L122.616 179.373L127.056 176.002L88.4417 20.6934Z" fill="#FF6652"/>
<path d="M122.616 179.373H329.811L335.533 176.002H127.056L122.616 179.373Z" fill="#E04E3B"/>
<path d="M195.377 209.732H240.238V207.598H195.377V209.732Z" fill="#FF6652"/>
<path d="M228.834 179.372L228.603 181.004L186.413 189.538L186.992 182.647L187.268 179.372H228.834Z" fill="#E04E3B"/>
<path opacity="0.4" d="M233.096 207.55C231.381 207.555 198.258 207.659 189.768 207.55C186.068 207.504 185.418 204.256 185.388 202.152L227.378 194.242C226.941 199.06 226.686 202.136 226.683 202.72C226.682 203.061 226.711 203.377 226.767 203.673C227.47 207.428 232.453 207.55 233.096 207.55Z" fill="#E04E3B"/>
<path opacity="0.4" d="M215.927 145.491L127.056 176.002L119.466 145.473L215.927 145.491Z" fill="#E04E3B"/>
<path d="M294.173 20.6934H88.4417L119.448 145.473L327.554 145.513L294.173 20.6934Z" fill="#8434DC"/>
<path d="M236.821 161.292C236.227 158.231 233.267 155.749 230.21 155.749C227.153 155.749 225.156 158.23 225.751 161.292C226.345 164.353 229.305 166.835 232.362 166.835C235.419 166.833 237.416 164.353 236.821 161.292Z" fill="#E04E3B"/>
<path d="M317.851 140.103H125.224L103.409 53.0885L101.736 46.4161L100.309 40.7245L96.9639 27.3782H286.814L290.489 40.7245L292.056 46.4161L293.892 53.0885L317.851 140.103Z" fill="#E9F3FE"/>
<path d="M286.814 27.3782H96.9639L100.309 40.7245H290.489L286.814 27.3782Z" fill="#9C4DF4"/>
<path d="M164.861 61.8984H184.066L186.557 71.5374H167.353L164.861 61.8984Z" fill="#8434DC"/>
<path d="M129.175 71.5371H148.378L150.756 80.7362H131.603L129.175 71.5371Z" fill="#8434DC"/>
<path d="M222.667 61.8984H241.872L244.364 71.5374H225.159L222.667 61.8984Z" fill="#8434DC"/>
<path d="M227.538 81.3955H246.743L249.121 90.5946H229.966L227.538 81.3955Z" fill="#8434DC"/>
<path d="M213.236 100.453H251.748L254.136 110.092H215.728L213.236 100.453Z" fill="#8434DC"/>
<path d="M296.608 61.6177H105.332V62.1782H296.608V61.6177Z" fill="#9C4DF4"/>
<path d="M299.207 71.2563H108.079V71.8169H299.207V71.2563Z" fill="#9C4DF4"/>
<path d="M301.807 80.895H109.976V81.4556H301.807V80.895Z" fill="#9C4DF4"/>
<path d="M304.405 90.5347H112.801V91.0952H304.405V90.5347Z" fill="#9C4DF4"/>
<path d="M307.004 100.174H115.235V100.734H307.004V100.174Z" fill="#9C4DF4"/>
<path d="M309.603 109.813H117.525V110.374H309.603V109.813Z" fill="#9C4DF4"/>
<path d="M312.203 119.45H119.886V120.01H312.203V119.45Z" fill="#9C4DF4"/>
<path d="M314.802 129.088H122.474V129.649H314.802V129.088Z" fill="#9C4DF4"/>
<path d="M106.068 31.7417C105.148 31.7417 104.588 32.4882 104.817 33.4095C105.047 34.3308 105.978 35.0772 106.898 35.0772C107.818 35.0772 108.378 34.3308 108.149 33.4095C107.921 32.4882 106.99 31.7417 106.068 31.7417Z" fill="#E9F3FE"/>
<path d="M111.605 31.7417C110.685 31.7417 110.125 32.4882 110.354 33.4095C110.584 34.3308 111.515 35.0772 112.435 35.0772C113.356 35.0772 113.915 34.3308 113.687 33.4095C113.457 32.4882 112.526 31.7417 111.605 31.7417Z" fill="#E9F3FE"/>
<path d="M119.648 33.4095C119.418 32.4882 118.487 31.7417 117.567 31.7417C116.647 31.7417 116.087 32.4882 116.316 33.4095C116.546 34.3308 117.477 35.0772 118.397 35.0772C119.317 35.0772 119.877 34.3308 119.648 33.4095Z" fill="#E9F3FE"/>
<path d="M300.032 140.174L300.572 140.032L278.099 53.0888H293.892L292.056 46.4163H276.374L276.356 46.3469L276.085 46.4163H257.169L257.151 46.3469L256.881 46.4163H237.966L237.948 46.3469L237.676 46.4163H218.761L218.743 46.3469L218.473 46.4163H199.557L199.539 46.3469L199.268 46.4163H180.353L180.334 46.3469L180.064 46.4163H161.149L161.131 46.3469L160.859 46.4163H141.944L141.926 46.3469L141.656 46.4163H122.74L122.722 46.3469L122.451 46.4163H101.736L103.409 53.0888H123.887L146.398 140.174L146.938 140.032L124.465 53.0888H143.092L165.601 140.174L166.143 140.032L143.669 53.0888H162.296L184.806 140.174L185.348 140.032L162.874 53.0888H181.499L204.01 140.174L204.551 140.032L182.077 53.0888H200.704L223.215 140.174L223.755 140.032L201.282 53.0888H219.909L242.418 140.174L242.96 140.032L220.486 53.0888H239.113L261.623 140.174L262.165 140.032L239.69 53.0888H258.316L280.827 140.174L281.368 140.032L258.894 53.0888H277.521L300.032 140.174Z" fill="#9C4DF4"/>
<path d="M432.286 103.095H392.092V143.343H432.286V103.095Z" fill="#E04E3B"/>
<path d="M444.681 103.095H404.486V143.343H444.681V103.095Z" fill="#EE9849"/>
<path d="M425.009 129.935C423.388 129.942 422.079 131.262 422.085 132.886C422.092 134.509 423.412 135.819 425.033 135.813C426.654 135.807 427.962 134.486 427.957 132.862C427.951 131.239 426.631 129.928 425.009 129.935Z" fill="#EBF2F9"/>
<path d="M425.034 116.053C426.656 116.046 427.965 114.725 427.958 113.101C427.951 111.478 426.632 110.168 425.011 110.174C423.39 110.181 422.08 111.502 422.087 113.125C422.094 114.748 423.413 116.06 425.034 116.053Z" fill="#EBF2F9"/>
<path d="M437.553 120.228L412.395 120.333L412.419 126.211L437.577 126.107L437.553 120.228Z" fill="#EBF2F9"/>
<path d="M81.9732 130.98H47.613V165.384H81.9732V130.98Z" fill="#4A75CB"/>
<path d="M92.5684 130.98H58.2083V165.384H92.5684V130.98Z" fill="#699DEE"/>
<path d="M86.4824 145.669H64.9761V150.694H86.4824V145.669Z" fill="#EBF2F9"/>
<path d="M372.28 209.983H438.837V143.34H372.28V209.983Z" fill="#E04E3B"/>
<path d="M418.315 143.34H351.758V209.983H418.315V143.34Z" fill="#FF6652"/>
<path d="M405.204 171.795H389.236V155.807H379.514V171.795H363.548V181.528H379.514V197.516H389.236V181.528H405.204V171.795Z" fill="#EBF2F9"/>
<path d="M418.315 143.34L438.837 153.347V143.34H418.315Z" fill="#C95C12"/>
<path d="M456.435 210.108H34.5056C34.2991 210.108 34.1287 209.939 34.1287 209.73C34.1287 209.524 34.2977 209.353 34.5056 209.353H456.435C456.641 209.353 456.812 209.522 456.812 209.73C456.81 209.939 456.641 210.108 456.435 210.108Z" fill="#283250"/>
<path d="M95.3522 165.384H51.439V209.354H95.3522V165.384Z" fill="#E04E3B"/>
<path d="M108.892 165.384H64.9788V209.354H108.892V165.384Z" fill="#FF6652"/>
<path d="M99.4762 194.631L91.906 187.295L99.2337 179.714L94.6234 175.248L87.2971 182.828L79.727 175.492L75.2664 180.107L82.8365 187.444L75.5102 195.024L80.1191 199.49L87.4454 191.91L95.0156 199.246L99.4762 194.631Z" fill="#EBF2F9"/>
<path d="M64.9788 165.384L51.439 173.604V165.384H64.9788Z" fill="#C95C12"/>
<path d="M287.836 94.4583C287.836 94.4583 298.073 104.896 298.565 108.89C299.057 112.883 293.691 119.129 293.691 119.129L287.836 94.4583Z" fill="#E58638"/>
<path d="M283.449 204.291C283.449 204.291 283.232 207.808 282.601 209.322H269.801C270.017 208.818 270.52 208.172 271.687 207.968C273.692 207.617 277.047 206.207 278.261 203.554C279.539 200.764 283.449 204.291 283.449 204.291Z" fill="#163560"/>
<path d="M298.723 204.291C298.723 204.291 298.505 207.808 297.876 209.322H285.076C285.291 208.818 285.794 208.172 286.962 207.968C288.966 207.617 292.322 206.207 293.536 203.554C294.814 200.764 298.723 204.291 298.723 204.291Z" fill="#163560"/>
<path d="M275.854 143.792C275.854 143.792 277.647 155.277 284.339 175.667C291.031 196.056 291.941 204.885 291.941 204.885L299.119 204.684C299.119 204.684 299.18 182.4 296.097 172.148C293.014 161.896 295.432 135.185 295.432 135.185L275.854 143.792Z" fill="#163560"/>
<path d="M272.361 135.812C272.361 135.812 272.107 153.12 275.098 174.373C278.088 195.625 277.075 204.645 277.075 204.645L284.238 204.884C284.238 204.884 288.518 183.624 287.292 172.988C286.064 162.351 293.153 136.488 293.153 136.488L272.361 135.812Z" fill="#1C468A"/>
<path d="M286.228 95.3092L282.411 97.815L276.896 96.7854C276.972 96.3401 277.337 94.4919 277.668 92.8186C277.687 92.7201 277.708 92.6216 277.726 92.5244C278.01 91.1009 278.256 89.8771 278.256 89.8771L283.408 87.6016L285.328 86.7524C285.323 86.783 285.18 88.3328 285.159 88.559C284.799 92.5786 286.228 95.3092 286.228 95.3092Z" fill="#FFB27D"/>
<path d="M295.905 137.95C294.798 143.01 276.363 143.609 271.61 139.017C271.069 138.494 271.043 136.057 271.247 132.773C271.646 126.357 272.926 116.706 272.976 111.775C273.001 109.394 273.327 106.957 273.763 104.745C274.689 100.032 276.101 96.3331 276.101 96.3331C276.101 96.3331 285.105 93.4179 286.79 93.9146C294.908 96.3011 297.014 132.89 295.905 137.95Z" fill="#EE9849"/>
<path d="M271.248 132.773C271.647 126.358 272.928 116.706 272.977 111.775C273.002 109.394 273.328 106.958 273.764 104.746L279.181 103.789C279.18 103.789 284.476 125.447 271.248 132.773Z" fill="#E58638"/>
<path d="M274.18 123.829C274.18 123.829 274.549 124.713 273.774 125.305C272.999 125.899 272.496 126.859 272.674 127.563C272.851 128.265 274.553 129.411 275.142 129.226C275.731 129.042 276.931 128.116 276.802 127.746C276.673 127.375 277.61 124.494 276.171 123.385C274.734 122.276 274.18 123.829 274.18 123.829Z" fill="#FFB27D"/>
<path d="M280.237 95.0352C280.237 95.0352 274.955 96.0244 270.745 102.236C266.535 108.447 263.767 113.066 264.543 115.304C265.319 117.542 272.386 125.306 273.604 125.306C274.822 125.306 276.788 124.42 276.899 122.423C276.899 122.423 271.923 114.955 272.903 113.837C273.321 113.358 279.363 108.448 280.226 110.667C281.653 114.335 280.237 95.0352 280.237 95.0352Z" fill="#EE9849"/>
<path d="M284.773 88.6298C283.642 90.5487 279.426 92.2081 277.668 92.8172C277.687 92.7187 277.708 92.6202 277.726 92.5231C278.01 91.0995 278.256 89.8757 278.256 89.8757L283.408 87.6002C284.547 87.585 285.24 87.8403 284.773 88.6298Z" fill="#FCA56B"/>
<path d="M276.314 89.5638C276.314 89.5638 284.612 92.1557 286.145 86.9567C287.677 81.7578 289.781 78.5901 284.547 76.7156C279.313 74.8411 277.695 76.5186 276.762 78.1295C275.829 79.7404 274.196 88.7549 276.314 89.5638Z" fill="#FFB27D"/>
<path d="M277.087 77.6284C277.087 77.6284 277.617 83.6793 278.867 83.4156C280.117 83.152 281.25 82.9578 281.067 84.7823C280.884 86.6055 279.151 88.7117 283.003 89.035C286.854 89.3583 292.39 79.4127 291.333 77.5299C288.278 72.0964 272.675 71.0003 277.087 77.6284Z" fill="#163560"/>
<path d="M278.308 94.0452C278.415 93.9995 284.95 92.0694 285.661 92.3039C286.37 92.5384 286.792 93.9134 286.792 93.9134L276.102 96.3333C276.102 96.3333 276.943 94.6211 278.308 94.0452Z" fill="#E58638"/>
<path d="M71.7717 109.361C71.7717 109.361 68.3074 105.314 71.5583 102.744C71.5583 102.744 73.932 101.305 75.8692 101.422C75.8692 101.422 73.1255 106.028 74.0137 106.486C74.902 106.944 76.7007 101.133 76.7007 101.133C76.7007 101.133 82.1036 100.609 83.8426 101.445C83.8426 101.445 79.224 105.23 80.1968 105.455C81.1696 105.68 86.1596 101.966 86.1596 101.966C86.1596 101.966 91.1883 102.823 90.9209 105.894C90.6534 108.965 88.9199 109.913 88.1578 109.833C87.3956 109.751 82.9405 108.048 82.8435 108.673C82.7465 109.297 85.4279 111.339 87.3055 111.435C87.3055 111.435 83.7595 115.351 81.4038 114.22C79.0481 113.09 78.8457 111.299 77.3769 110.628C75.908 109.956 74.654 109.957 75.2609 110.643C75.8678 111.328 78.5256 111.994 79.3654 113.482C80.2051 114.969 80.959 115.972 78.5215 115.606C76.084 115.238 72.1209 113.453 71.9463 111.407C71.7717 109.362 71.7717 109.361 71.7717 109.361Z" fill="#82B378"/>
<path d="M88.4471 105.976C88.4471 105.976 74.7882 105.449 71.7715 109.361C71.7715 109.361 71.1049 111.361 69.0513 113.183L68.7312 114.056C68.7312 114.056 71.098 111.557 71.9447 111.406C71.9461 111.406 70.6213 106.561 88.4471 105.976Z" fill="#82B378"/>
<path d="M69.0514 113.184C69.0514 113.184 66.1192 115.355 65.9155 119.233L66.4476 119.28C66.4476 119.28 67.3844 115.269 69.0764 113.701C70.7697 112.133 69.0514 113.184 69.0514 113.184Z" fill="#82B378"/>
<path d="M59.6591 104.272C59.6591 104.272 65.17 101.182 62.5982 96.9895C62.5982 96.9895 60.5404 94.4143 58.3371 93.7524C58.3371 93.7524 59.5122 100.006 58.3371 100.153C57.162 100.3 57.5292 93.0906 57.5292 93.0906C57.5292 93.0906 51.7245 90.2948 49.4464 90.5154C49.4464 90.5154 53.0464 96.6218 51.8714 96.4747C50.6963 96.3276 46.6541 90.1477 46.6541 90.1477C46.6541 90.1477 40.7025 89.0447 39.7477 92.5758C38.793 96.107 40.3353 97.8733 41.218 98.0939C42.0993 98.3145 47.7572 98.241 47.6103 98.9764C47.4634 99.7117 43.643 100.89 41.5118 100.227C41.5118 100.227 43.8633 106.039 46.9493 105.745C50.0353 105.45 50.99 103.537 52.9009 103.39C54.8118 103.243 56.2073 103.758 55.2525 104.272C54.2977 104.787 51.0649 104.442 49.5212 105.754C47.9775 107.068 46.729 107.877 49.5946 108.465C52.4603 109.054 57.6041 108.686 58.6323 106.479C59.6591 104.272 59.6591 104.272 59.6591 104.272Z" fill="#A8D29F"/>
<path d="M42.4666 93.679C42.4666 93.679 57.8965 98.6823 59.6605 104.273C59.6605 104.273 59.5871 106.774 61.1294 109.644V110.747C61.1294 110.747 59.5122 106.995 58.6309 106.48C58.6309 106.48 62.0841 101.624 42.4666 93.679Z" fill="#82B378"/>
<path d="M61.1293 109.644C61.1293 109.644 63.5085 113.262 62.1519 117.666L61.5394 117.501C61.5394 117.501 62.1339 112.65 60.8881 110.21C59.6438 107.771 61.1293 109.644 61.1293 109.644Z" fill="#82B378"/>
<path d="M68.4265 100.011C68.4265 100.011 61.1626 95.9371 64.552 90.4093C64.552 90.4093 67.2639 87.0155 70.1697 86.1427C70.1697 86.1427 68.6205 94.3859 70.1697 94.5801C71.7189 94.7744 71.2353 85.27 71.2353 85.27C71.2353 85.27 78.8872 81.5848 81.8887 81.8762C81.8887 81.8762 77.1426 89.925 78.6918 89.7308C80.2411 89.5365 85.5691 81.3905 85.5691 81.3905C85.5691 81.3905 93.4137 79.9364 94.6733 84.5915C95.9329 89.2465 93.8987 91.5734 92.736 91.8648C91.5734 92.1561 84.1155 92.059 84.3095 93.0289C84.5035 93.9987 89.5392 95.55 92.348 94.6772C92.348 94.6772 89.2482 102.339 85.1811 101.95C81.1127 101.562 79.8545 99.0409 77.3366 98.8467C74.8188 98.6524 72.9785 99.3323 74.2368 100.011C75.4964 100.689 79.7575 100.233 81.7917 101.964C83.8259 103.696 85.4721 104.763 81.6947 105.539C77.9172 106.314 71.1383 105.83 69.7817 102.92C68.4265 100.011 68.4265 100.011 68.4265 100.011Z" fill="#A8D29F"/>
<path d="M91.0899 86.0457C91.0899 86.0457 70.7503 92.6404 68.4265 100.011C68.4265 100.011 68.5235 103.308 66.4893 107.09V108.544C66.4893 108.544 68.6205 103.598 69.7817 102.919C69.7831 102.92 65.231 96.5185 91.0899 86.0457Z" fill="#82B378"/>
<path d="M66.4892 107.09C66.4892 107.09 63.352 111.859 65.1409 117.665L65.9474 117.449C65.9474 117.449 65.1645 111.054 66.8052 107.838C68.4472 104.621 66.4892 107.09 66.4892 107.09Z" fill="#82B378"/>
<path d="M68.1814 130.255C76.0398 130.255 82.4099 123.876 82.4099 116.008H53.9529C53.9529 123.876 60.323 130.255 68.1814 130.255Z" fill="#FF6652"/>
<path d="M71.683 130.146C71.1038 130.219 70.5148 130.256 69.9148 130.256C62.0564 130.256 55.6863 123.876 55.6863 116.008H59.2212C59.2226 123.277 64.6588 129.274 71.683 130.146Z" fill="#FFB973"/>
<path d="M80.8521 129.222H55.5116C54.5416 129.222 53.7559 130.009 53.7559 130.98H82.6078C82.6078 130.009 81.8221 129.222 80.8521 129.222Z" fill="#FF6652"/>
<path d="M82.734 116.008H53.4844V116.445H82.734V116.008Z" fill="#E04E3B"/>
</g>
<defs>
<clipPath id="clip0_445_8660">
<rect width="485" height="210" fill="white"/>
</clipPath>
</defs>
</svg>
