<svg width="24" height="24" viewBox="0 0 24 24" fill="none" xmlns="http://www.w3.org/2000/svg">
<path d="M15.7101 8.28996C15.6171 8.19623 15.5065 8.12183 15.3847 8.07107C15.2628 8.0203 15.1321 7.99416 15.0001 7.99416C14.8681 7.99416 14.7374 8.0203 14.6155 8.07107C14.4936 8.12183 14.383 8.19623 14.2901 8.28996L12.0001 10.59L9.71008 8.28996C9.52178 8.10165 9.26638 7.99587 9.00008 7.99587C8.73378 7.99587 8.47838 8.10165 8.29008 8.28996C8.10178 8.47826 7.99599 8.73366 7.99599 8.99996C7.99599 9.26626 8.10178 9.52165 8.29008 9.70996L10.5901 12L8.29008 14.29C8.19635 14.3829 8.12196 14.4935 8.07119 14.6154C8.02042 14.7372 7.99428 14.8679 7.99428 15C7.99428 15.132 8.02042 15.2627 8.07119 15.3845C8.12196 15.5064 8.19635 15.617 8.29008 15.71C8.38304 15.8037 8.49364 15.8781 8.6155 15.9288C8.73736 15.9796 8.86807 16.0058 9.00008 16.0058C9.13209 16.0058 9.2628 15.9796 9.38466 15.9288C9.50652 15.8781 9.61712 15.8037 9.71008 15.71L12.0001 13.41L14.2901 15.71C14.383 15.8037 14.4936 15.8781 14.6155 15.9288C14.7374 15.9796 14.8681 16.0058 15.0001 16.0058C15.1321 16.0058 15.2628 15.9796 15.3847 15.9288C15.5065 15.8781 15.6171 15.8037 15.7101 15.71C15.8038 15.617 15.8782 15.5064 15.929 15.3845C15.9797 15.2627 16.0059 15.132 16.0059 15C16.0059 14.8679 15.9797 14.7372 15.929 14.6154C15.8782 14.4935 15.8038 14.3829 15.7101 14.29L13.4101 12L15.7101 9.70996C15.8038 9.61699 15.8782 9.50639 15.929 9.38453C15.9797 9.26267 16.0059 9.13197 16.0059 8.99996C16.0059 8.86795 15.9797 8.73724 15.929 8.61538C15.8782 8.49352 15.8038 8.38292 15.7101 8.28996ZM19.0701 4.92996C18.1476 3.97486 17.0442 3.21303 15.8241 2.68894C14.6041 2.16485 13.2919 1.88899 11.9641 1.87745C10.6363 1.86591 9.3195 2.11893 8.09054 2.62174C6.86158 3.12455 5.74506 3.86708 4.80613 4.80601C3.8672 5.74493 3.12467 6.86145 2.62186 8.09042C2.11905 9.31938 1.86604 10.6362 1.87757 11.964C1.88911 13.2918 2.16498 14.604 2.68907 15.824C3.21316 17.044 3.97498 18.1475 4.93008 19.07C5.85255 20.0251 6.95599 20.7869 8.17603 21.311C9.39607 21.8351 10.7083 22.1109 12.0361 22.1225C13.3639 22.134 14.6807 21.881 15.9096 21.3782C17.1386 20.8754 18.2551 20.1328 19.194 19.1939C20.133 18.255 20.8755 17.1385 21.3783 15.9095C21.8811 14.6805 22.1341 13.3637 22.1226 12.0359C22.111 10.7082 21.8352 9.39595 21.3111 8.17591C20.787 6.95587 20.0252 5.85243 19.0701 4.92996ZM17.6601 17.66C16.3521 18.9694 14.6306 19.7848 12.7889 19.9673C10.9471 20.1497 9.09908 19.688 7.5596 18.6607C6.02012 17.6334 4.88444 16.1042 4.34605 14.3334C3.80767 12.5627 3.89988 10.6601 4.60699 8.94974C5.3141 7.23938 6.59235 5.82711 8.22397 4.95352C9.85559 4.07993 11.7396 3.79909 13.5551 4.15883C15.3706 4.51857 17.0051 5.49665 18.1803 6.92642C19.3555 8.35619 19.9986 10.1492 20.0001 12C20.0036 13.0512 19.7987 14.0928 19.397 15.0643C18.9953 16.0359 18.405 16.9181 17.6601 17.66Z" fill="#D97356"/>
</svg>
