<svg width="18" height="18" viewBox="0 0 18 18" fill="none" xmlns="http://www.w3.org/2000/svg">
<path d="M16.4402 8.7C14.9252 5.1825 12.0752 3 9.00017 3C5.92517 3 3.07517 5.1825 1.56017 8.7C1.51887 8.79462 1.49756 8.89676 1.49756 9C1.49756 9.10324 1.51887 9.20537 1.56017 9.3C3.07517 12.8175 5.92517 15 9.00017 15C12.0752 15 14.9252 12.8175 16.4402 9.3C16.4815 9.20537 16.5028 9.10324 16.5028 9C16.5028 8.89676 16.4815 8.79462 16.4402 8.7ZM9.00017 13.5C6.62267 13.5 4.37267 11.7825 3.07517 9C4.37267 6.2175 6.62267 4.5 9.00017 4.5C11.3777 4.5 13.6277 6.2175 14.9252 9C13.6277 11.7825 11.3777 13.5 9.00017 13.5ZM9.00017 6C8.40683 6 7.82681 6.17595 7.33346 6.50559C6.84011 6.83524 6.4556 7.30377 6.22853 7.85195C6.00147 8.40013 5.94206 9.00333 6.05782 9.58527C6.17357 10.1672 6.45929 10.7018 6.87885 11.1213C7.29841 11.5409 7.83296 11.8266 8.4149 11.9424C8.99684 12.0581 9.60005 11.9987 10.1482 11.7716C10.6964 11.5446 11.1649 11.1601 11.4946 10.6667C11.8242 10.1734 12.0002 9.59334 12.0002 9C12.0002 8.20435 11.6841 7.44129 11.1215 6.87868C10.5589 6.31607 9.79582 6 9.00017 6ZM9.00017 10.5C8.7035 10.5 8.41349 10.412 8.16682 10.2472C7.92014 10.0824 7.72788 9.84811 7.61435 9.57402C7.50082 9.29994 7.47112 8.99834 7.52899 8.70736C7.58687 8.41639 7.72973 8.14912 7.93951 7.93934C8.14929 7.72956 8.41657 7.5867 8.70754 7.52882C8.99851 7.47094 9.30011 7.50065 9.5742 7.61418C9.84829 7.72771 10.0826 7.91997 10.2474 8.16664C10.4122 8.41332 10.5002 8.70333 10.5002 9C10.5002 9.39782 10.3421 9.77935 10.0608 10.0607C9.77953 10.342 9.398 10.5 9.00017 10.5Z" fill="#5D5A6F"/>
</svg>
